<?xml version="1.0" encoding="UTF-8"?>
<svg id="Layer_1" data-name="Layer 1" xmlns="http://www.w3.org/2000/svg" xmlns:xlink="http://www.w3.org/1999/xlink" viewBox="0 0 9 8.35">
  <defs>
    <style>
      .cls-1 {
        fill: url(#linear-gradient);
      }
    </style>
    <linearGradient id="linear-gradient" x1="-6549.26" y1="4474.18" x2="-6516.16" y2="4474.18" gradientTransform="translate(-6540.29 -4470) rotate(-180) scale(1 -1)" gradientUnits="userSpaceOnUse">
      <stop offset="0" stop-color="#dedb97"/>
      <stop offset="1" stop-color="#ceb752"/>
    </linearGradient>
  </defs>
  <g id="middle">
    <path class="cls-1" d="m2.07,7.77c.39.21,1.69.83,3.26.47,1.07-.24,1.76-.83,1.9-.95.65-.57.97-1.2,1.12-1.56.32-.48.48-.64.48-.96.16-.32.32-.8,0-1.75-.32-.8-1.12-1.43-1.12-1.75-.32-.32-.64-.64-1.28-.96-.64-.32-1.28-.32-1.59-.32-.81.17-1.62.34-2.43.51-.31.11-1.27.51-1.87,1.54C.21,2.62.12,3.17.1,3.5c-.08.37-.21,1.15.08,2.04.46,1.42,1.6,2.08,1.89,2.24Z"/>
  </g>
</svg>