<?xml version="1.0" encoding="utf-8"?>
<!-- Generator: Adobe Illustrator 27.2.0, SVG Export Plug-In . SVG Version: 6.00 Build 0)  -->
<svg version="1.1" xmlns="http://www.w3.org/2000/svg" xmlns:xlink="http://www.w3.org/1999/xlink" x="0px" y="0px"
	 viewBox="0 0 4014.6 3470.6" style="enable-background:new 0 0 4014.6 3470.6;" xml:space="preserve">
<style type="text/css">
	.st0{fill:#C2D9F1;stroke:#000000;stroke-width:5;stroke-miterlimit:10;}
	.st1{fill:#F1F2F2;stroke:#000000;stroke-width:5;stroke-miterlimit:10;}
	.st2{fill:#FFE6C7;stroke:#000000;stroke-width:5;stroke-miterlimit:10;}
	.st3{opacity:0.68;fill:#FFFFFF;}
	.st4{font-family:'MyriadPro-Regular';}
	.st5{font-size:199px;}
	.st6{letter-spacing:5;}
	.st7{opacity:0.82;fill:#FFFFFF;}
</style>
<g id="Layer_4">
	<path class="st0" d="M3923.5,3403.5c-4.5-1112.3,2.5-2224.6,21-3336.7c-436.2-2.7-789.9-0.8-1030.6,1.4
		c-443.9,4.1-651.3,10.5-1086.6,8.2c-233.8-1.2-286.4-3.7-641.4-8.2C876,64.3,507.5,61,91,60C80.3,593.7,76.1,1127.4,78.5,1661
		c2.5,578.9,12.8,1157.8,30.7,1736.7c549.6,2.9,1099.1,4.9,1648.6,6C2479.6,3405.1,3201.5,3405.1,3923.5,3403.5z"/>
</g>
<g id="Layer_3">
	<path class="st1" d="M1474.9,276.5c-11.9,58.7,7.9,129.6-33.9,172.5c-15.9,16.4-38.1,24.8-59.5,32.8
		c-134.5,49.9-269.8,97.5-405.8,143c-23,7.7-46.6,15.4-70.8,14.5c-20.8-0.8-40.8-7.9-60.1-15.7c-49-19.7-96.3-43.8-141-71.9
		c-50.6-31.8-100.6-72.6-117.9-129.9c-12.2-40.3-6.5-83.6-0.6-125.3c10.6-76,22.2-154.6,63.4-219.3c3.6-5.7,7.7-11.5,13.7-14.5
		c6.5-3.3,14.1-3,21.4-2.6c145.1,8.3,290.4,12.3,435.7,12.1c73.3-0.1,146.6-1.3,219.8-3.5c54.3-1.7,77.7-1.2,100.1,49.6
		c11.7,26.3,32.2,52.9,41.6,79C1490.4,223.3,1480.1,250.5,1474.9,276.5z"/>
	<path class="st1" d="M267,145c20.4,5.5,45,15.6,46.6,36.8c1,12.8-7.4,24.2-10.9,36.5s2.3,29.9,15.1,29
		c-2.9,12.6-16.3,20.5-29.2,21.3s-25.4-3.9-37.5-8.5c22.6,29.2,16.1,76.4-13.4,98.5c4.3,17.5,35.1,9.5,45.5,24.3
		c3.7,5.3,3.7,12.4,2.7,18.8c-3.6,22.1-17.5,40.9-27.1,61.1c-9.6,20.2-14.3,46-0.6,63.8c11.6-6.8,25,9.9,21.9,23
		c-3.1,13.1-14.6,22.1-23.5,32.2c-18.8,21.4-26.8,49.9-34.3,77.4c-2.5,9.4-5,19.5-1.4,28.5c5.4,13.5,21.7,18.4,32.7,28
		s11.4,33.6-3.2,33.3c10.2,6.4,20.4,12.9,30.6,19.3c-2,21.4-11.3,42.1-25.9,57.9c-5.5-26.6-27.3-49.2-53.7-55.5
		C238,829,289.4,878.4,349.5,912.7c34.1,19.4,77.2,44.4,72.6,83.4c19.8-6.4,33.2,21.9,29.9,42.4c-3.3,20.6-12.8,43.3-1.4,60.7
		c31.4-6.5,61.5,26.3,92.6,18.7c22.7-5.6,34.6-29.5,47.7-48.9c20.5-30.1,49.6-53,76-78c71.6-67.8,125.3-154.2,154.3-248.4
		c9.4-30.5,16.3-62.5,12.8-94.2c-3.5-31.7-18.9-63.4-45.9-80.4c-28.7-18.1-65-17.2-98.9-15.6c-13.3-17,2.7-44.8-9.5-62.6
		c-4.4-6.4-11.6-10.1-18.2-14.3c-29.7-18.5-51-49.8-57.3-84.1c-1-5.7-1.6-12,1.8-16.7c3.6-5.1,10.4-6.4,15.8-9.5
		c13.4-7.7,17.1-26.3,12.5-41.1c-4.7-14.8-15.6-26.5-26.3-37.8c10.7-7.5,21.4-15,32.1-22.5c-24.7-30.1-9.2-75.2,9.5-109.4
		c8.1-14.9,16.9-29.9,19.2-46.7s-3.5-36-18.4-44.1c-9.1-5-20-5-30.4-5c-138.9,0.5-277.8,1.1-416.7,1.6
		c-23.5,0.1-61.2,23.3-41.3,52.7C174.7,131.7,244.2,138.8,267,145z"/>
	<path class="st1" d="M2797.1,97.1c-17.7-6.9-38.6-18.6-53.7-7.1c-15.1,11.5-10.6,37.4-24.6,50.1c-18.7,16.8-55.7-1.4-70.2,19.1
		c-3.4,4.7-4.5,10.6-5.5,16.4c-5.4,32.7-5.5,66.3-12.4,98.7c-6.9,32.5-21.9,65.1-49.5,83.4c-28.6,19-65.3,19.5-97.9,30.3
		c-26.3,8.7-50.1,24.3-77.1,30.5c-57.1,13.1-114-17.5-171.8-26.8c-46.1-7.4-93.2-1-139.9-2.3c-64.8-1.9-128.4-18.7-193.2-20.9
		c-131.9-4.4-259.6,52-391.5,51.5c-47.1-0.2-101.2-12.4-122.7-54.3c-11.5-22.3-11.1-48.6-10.5-73.7c1.4-56.9,2.8-113.7,4.1-170.6
		c0.3-11.5,0.7-23.6,6.9-33.2c10-15.6,30.9-19.2,49.3-20.9c101.7-9.1,204-2,306,1.3c110,3.5,220,2.6,330.1,1.6
		c143.3,0,286.7-2.4,430-3.6c72.3-0.6,144.6-1.2,216.9-1.8c45.1-0.4,132.2-18.9,168.9,12.4c-14.4,4.8-32.5,2.6-48.1,1.8
		C2837.9,98.9,2814,103.7,2797.1,97.1z"/>
	<path class="st1" d="M3235.8,216.3c0,0,3.4,11.6,13.9,21.8c91,88.7,210.1,148,335.7,167.3c-4.9,21.9-9.8,43.8-14.8,65.7
		c-3.1,13.7-6.6,28.2-16.8,37.9c-9.8,9.3-23.8,12.3-37.1,14.6c-29.3,5-59,8.5-88.7,10.3c-0.4-11.5-0.7-23-1.1-34.4
		c-7.1,1.3-12.7,8.3-12.4,15.5c-9.2-3.4-19.6-3.1-28.6,0.9c-4,1.8-7.9,4.3-12.3,4.7c-6.8,0.5-12.7-4.2-18.1-8.4
		c-39.8-31-103.8-40-137.4-2.4c-8.1,9-15.9,21.2-28,21.3c-6.1,0-11.7-3.2-17.2-5.9c-33.4-16.3-72.6-13.2-109.6-9.7
		c-7.7,0.7-16.1,1.7-21.6,7.2c-6.2,6.1-6.8,15.8-7.9,24.4c-5.1,40.1-30.4,75.5-61.7,101.1c-31.2,25.7-68.3,43.1-104.9,60.2
		c-19,8.9-38,17.9-55.4,29.6c-13.2,8.9-25.2,19.3-37.2,29.6c-43,37.1-86,74.1-129,111.2c4.7,14.5-6.4,29.4-18.7,38.3
		c-12.3,9-27,15.7-35.1,28.6c-4.3-33.8,37.4-67.6,19.4-96.5c-4.4-7.1-12.5-13.8-10.5-21.9c1.4-6,6.8-7.2,9.2-10.8
		c11.4-17.2-57.6-66.9-49.6-87.4c7.5-19.2,77.8-1.1,204.7-4.7c17.7-0.5,32-1.3,40.8-1.8c20.3-8.2,15.5-42.4-4.2-51.9
		c-19.8-9.5-43.6-0.7-61.3,12.2c-34.3,9.1-69.9,13.1-105.3,11.8c-18.3-0.7-36.6-2.8-54.8-4.9c-15-1.7-31.5-4.3-41.1-15.9
		c-13.5-16.4-5.6-41.5,6.9-58.7c12.5-17.2,29.4-32.3,34.6-52.9c8.2-32.9-16.6-67.8-7.3-100.5c12.1-42.5,74.5-57.1,81.7-100.7
		c2.8-17-4-34-9.8-50.3c-21.9-61.5-22.7-96-26.4-129.4c-5.7-50.3-8.5-75.5,2.9-92.6c21.5-32.2,70.9-24.4,159.3-24.5
		c107.9-0.1,246-12,370.7,2.3c5.2,0.6,59.7,8.6,68.8,31.6c3,7.6,2.9,17-1.4,28.5c-2.1,5.6-4.3,9.2-6.3,11.8c-3.2,4.3-5.6,7.2-6,7.8
		C3203,150.6,3206.2,166.5,3235.8,216.3z"/>
	<path class="st1" d="M2413.6,913.5c34.5,4.3,70,1,103.1-9.6c5.3-1.7,11.2-4.3,12.8-9.6c0.9-3,0.1-6.1-0.6-9.1
		c-3.4-13.4-7.5-27.9-18.9-35.8c-9.6-6.6-22.4-6.7-33.4-3.2c-11,3.5-20.7,10.3-30.2,17c-7.7,5.4-15.3,10.8-23,16.2
		c-5.5,3.9-11.4,8.4-12.8,14.9c-1.4,6.6,5.2,14.6,11.3,11.6"/>
	<path class="st1" d="M3105.9,668.5c-16.7,3.2-33.3,6.4-50,9.7c-4.1,0.8-8.5,1.7-11.5,4.6c-3,2.9-3.9,8.5-0.6,11.1
		c1.7,1.3,4,1.6,6.1,1.7c10.7,0.9,21.4,1.7,32,2.6c10,0.8,20.9,1.3,28.9-4.7c8-6,8.9-21.2-0.6-24.4c-6.8-2.3-18.4-0.6-17.7-7.7"/>
	<path class="st1" d="M3216.1,750.7c-17.4-6-34.8-11.9-52.2-17.9c-8.1-2.8-16.4-5.6-24.9-5.3c-8.5,0.2-17.5,4.2-21.4,11.8
		c-4.7,9.3-0.4,20.9,6.7,28.5c12.7,13.7,33.1,18.3,51.5,15.3c18.4-3,35.1-12.7,49.9-24c-7.9-6.7-17.8-11-28.2-12"/>
	<path class="st1" d="M3050.8,719.8c-5.4,11.7-13.8,22.1-24,30c5.2,7.5,17.7,5.8,23.8-0.9s7.7-16.4,8.9-25.4
		c-5-0.2-9.9-0.4-14.9-0.6"/>
	<path class="st1" d="M3096.3,738.8c-8.4-6.5-22.5-5.9-27.9,3.1c-5.4,9.1,4.9,23.4,14.5,18.9c10.3-2.6,14.6-17.7,7.3-25.3"/>
	<path class="st1" d="M2937.3,1641.5c-26.7,0.1-53.5-1.9-79.9-6c-13.3-2.1-28.9-6.7-32.8-19.6c-1.9-6.2-0.4-12.9-1.4-19.3
		c-2.5-16.4-19.2-25.9-30.5-38c-11.3-12.1-14.1-37.1,2-41c10.5,19.1,39.6,5,55.1-10.3c7.9-7.9,15.8-15.7,23.7-23.6
		c11.3-11.2,23.1-28.9,13.1-41.3c-20.4-2.6-40.8-5.2-61.2-7.8c-4.6-0.6-9.4-1.3-13.1-4.1c-10.1-7.9-3.6-24.5,5.9-33.1
		c9.5-8.6,22.1-16.1,24-28.8c-39.9-26-73.8-61.2-98.3-102c54.4-15.7,99.4-60.5,115.4-114.8c-88.4-15.7-176,23.3-260.9,52.6
		c-12.7,4.4-29.7,7.3-37.3-3.8c-5.7-8.3-2.3-19.6,0.9-29.2c21.5-64,26-133.6,12.8-199.8c33.1,5.3,68.3-18.1,76.2-50.7
		c2.7-11.2,2.6-23.2,7.5-33.6c10.6-22.5,39-28.6,59.9-42.1c35-22.6,59.3-71.9,100.5-66.9c16.2,2,30.9,12.9,47.2,11.7
		c15.8-1.1,28.2-13.1,40.3-23.3c12.1-10.2,27.9-19.6,42.9-14.6c15,5,18,32.1,2.4,34.4c53.6,20.5,110.5,32.1,167.8,34.3
		c21.8,0.8,51.8-8.5,48.3-30.1c30.5,13.2,65.2,0.2,97.9-6.1c96.2-18.4,195.7,24.3,292.5,9.1c20.3-3.2,42.9-11.3,50.1-30.6
		c-16.7-14.1-41.3-11-63.2-10.1c-21.9,0.9-48.6-4.8-55.3-25.7c17.7-14,35.3-28,53-41.9c8.4-6.6,17.1-13.4,27.3-16.6
		c11.3-3.5,23.4-2.2,35.1-2.3c29-0.3,57.8-9.8,81.4-26.7c0.1,8.7,11.5,12.7,20,10.7s16-7.4,24.7-8c7.5-0.5,14.7,2.6,21.8,5.2
		c35.7,13.2,76,13.3,111.8,0.3c5.5-2,11.6-5,13.4-10.6c4-12.5-14.7-18.8-27.9-18.3c-34.2,1.2-68.5,2.3-102.7,3.5
		c-23,0.8-48.2,0.9-66.1-13.6c-11.2-9.1-17.8-22.7-28.6-32.2c-15.7-13.9-37.8-17.4-56.7-26.3c-18.9-8.9-36.6-29.5-29.1-49.1
		c3.5-9.2,12.1-16.1,14.2-25.7c1.7-7.8-1.2-16.1,0.8-23.9c1.8-7.1,7.5-12.5,13.4-16.9c32.2-23.7,76.3-24.1,115.2-15.2
		c59.4,13.5,68.1,25.6,115,33.9c43.7,7.8,83.4,2.7,115.5-5.7c-1,86.2-2,168-2,173.6c-7.9,675.7-11.7,1016.2-8.5,1146.1
		c3.8,150.5,4.7,301.1,7.6,451.6c2.5,134.6-4.8,269.4-22,403c-0.7,5.1-1.4,10.4-4.3,14.7c-3.2,4.7-8.4,7.4-13.5,10
		c-20,10.2-39.9,20.3-59.9,30.5c-10.8,5.5-22.8,11.2-34.6,8.3c-10.1-2.5-17.5-10.7-25.5-17.3c-29.6-24.7-70.2-30.1-106.7-42.5
		c-36.5-12.3-74.7-38.8-76.3-77.4c-0.5-11.9,2.5-24.6-3.1-35.1c-7-13.2-26.5-26.8-16.2-37.7c13.8,3.2,25.5-14,22.1-27.7
		c-3.5-13.7-16.3-23-29-29.1c-12.8-6.1-26.8-10.5-37.3-20c-13.5,19.3-22,42.1-24.4,65.6c-17.3-27.1-49-44.3-81.1-44.2
		c9.1-20.6-1.3-47.5-21.7-56.8s-47.5,0.6-57.2,20.8c-7.4-18.6-35.7-24.3-49.7-9.9c14.5,5.6,13.8,27.7,4.1,39.8s-24.7,19-35,30.6
		c-9.3,10.5-14.4,24.4-24.5,34.2c-10.1,9.8-29.3,13-36.7,1.1c12.3-2.3,25.8-5.4,33.3-15.4c7.6-10,3-28.7-9.5-28.9
		c-5.7-0.1-10.9,3.6-16.5,4.3s-12.8-4.8-9.8-9.6c12.8-8,29.4-6.7,43.1-13c13.7-6.4,21.2-29.1,7.3-35
		c-33.8,20.4-75.9,26.6-114.2,16.9c-8.6-2.2-18.4-5-26-0.2c-14.1,9-6.4,35.2-20.6,43.9c-11-14.3-32.9-10.6-50.6-7.5
		c-17.7,3.1-41.8-0.1-45.2-17.8c16.6-16.9,44-22,65.6-12.3c5.4,2.4,11,5.8,16.8,4.6c7.7-1.5,11.5-9.8,16.2-16.1
		c13-17.3,37.4-21.4,58.9-19.4s42.6,8.9,64.2,8.1c4.3-0.1,8.9-0.7,12-3.7c11.8-11.3-14-32.7-4-45.7c40.8-7.4,77.6-34.4,96.7-71.2
		c-101.5,12-202.5,27.4-302.9,46.2c-5.4-13.8-17.7-24.8-32.1-28.6c4.6,13.5-19,21.7-28.6,11.1c-9.6-10.5-7.4-27.1-3.3-40.7
		c2.7-9,6.6-18.5,14.8-23c14.9-8.1,31.9,4.7,46.2,13.8c14.3,9.1,39.5,10.4,42.3-6.3c3.3-23.7,6.6-47.4,10-71.1
		c-11.7,7.4-23.4,14.8-35.2,22.2c-9.4-9.7-8.6-27.2,1.6-36c-12.3,3.7-24.5,7.4-36.8,11.1c6-15.8,12.1-31.7,18.1-47.5
		c-16.1-1.8-28.9,12.3-42.4,21.2c-13.5,8.9-37.7,8.7-39.9-7.4c-1.2-8.9,5.8-16.7,8-25.4c2.2-8.7-7.6-20.6-13.9-14.2
		c17.7-12.1,12.6-41-2.4-56.3c-15-15.3-36.4-22.4-53.8-34.9c22-13.1,44-26.3,65.9-39.4c7.2-4.3,15-9.4,16.8-17.5
		c1.9-8.1-7.6-17.8-14.3-12.9c16.6-13.8,29-36.7,21.2-56.9c-7.8-20.2-42.7-24.9-49.6-4.4c-11.4-40.1-61.9-63.7-100-46.7
		c2.7-33-17.7-66.6-48.1-79.6c-15.2,12.3-24.7,31.3-25.6,50.8c-11.2,12.2-32.1,4-43-8.4s-18.3-28.9-33.1-36.3
		c-15.6-7.7-40.7-8.5-41.4-25.8c-0.4-10.2,10.5-17.9,20.7-17.9c10.2,0,19.6,5.3,28.3,10.5c17-5.1,21.8-28.4,15.3-45
		c-6.5-16.6-20.2-29.1-30.3-43.8s-16.1-35.2-6-49.8c9-13.2,28.3-16.1,43.2-10.2s25.9,18.6,34.8,31.9c14,20.9,21.9,53.5,1.2,67.8
		c4,18,17.4,33.7,34.7,40.3c-10.6-13.8-7.8-36,5.9-46.7c7.7,21.4,32.1,33.1,54.9,33.2c22.3,0,39.9-5.8,65.4-18.1
		C2910.9,1661.4,2926.7,1650,2937.3,1641.5z"/>
	<path class="st1" d="M2352.1-279"/>
</g>
<g id="Layer_2">
	<path class="st2" d="M2263.3,2971.7c-6.7,1.2-13.4,2.3-20,3.5c-1.6,0.3-3.4,0.7-4.2,2.1c-1.2,2,0.5,4.5,2.3,6.1
		c4.2,3.7,9.3,6.6,14.9,6.9c5.6,0.3,11.5-2.4,14-7.5c-2.2-4.2-5.8-7.6-10-9.5"/>
	<path class="st2" d="M1864.1,3233.7c-7-3.9-16.7,0.5-19.9,7.9c-3.2,7.4-0.8,16.3,4.3,22.6s12.5,10.1,20.1,13
		c0.8,0.3,1.6,0.6,2.4,0.4c2.3-0.5,2.4-3.6,2-5.9c-2.2-12.3-4.4-24.6-6.6-36.9c-6.6,0-13-4.1-15.8-10.1"/>
	<path class="st2" d="M1581.5,2778.7c0.4,8.4,1,16.8,3.1,25c0.8,3.3,1.9,6.6,4.4,8.9c2.5,2.3,6.6,3.1,9.2,0.9c2.3-2,2.5-5.5,2.4-8.6
		c-0.1-5.8-0.3-11.7-2.4-17.2c-2.1-5.4-6.3-10.3-12-11.7c-4.4-1-10.1,1.2-10.6,5.8"/>
	<path class="st2" d="M2623,3049.7c1.2-4.5,2.4-9,3.5-13.5c7.3,13.8-15.5,31-7.1,44.3c2,3.2,5.7,5.5,6.6,9.2
		c1.3,5.5-4.2,10-6.7,15.1c-5.1,10.1,2,22.3,0.6,33.5c-1.7,13.7-15.2,22.5-27.7,28.3s-26.6,11.7-32.6,24.2
		c-4.7-18.1-27-23.9-45.5-26.6c-11.4-1.6-23.5-3.2-34.1,1.5c-6.7,3-12.2,8.2-18.6,11.9c-6.4,3.7-14.8,5.6-20.9,1.6
		c-4.9-3.2-7.4-9.5-12.8-11.7c-6.8-2.7-13.9,2.4-19.9,6.5c-6,4.1-15.1,7.2-19.9,1.7c-18.4,13.6-42.1,19.9-64.8,17.1
		c-7.6-0.9-17.2-6.3-14.8-13.6c-10.5,6.7-22,11.9-34.1,15.4c-13,3.8-26.4,5.5-39.8,7.2c-15.5,2-30.9,4-46.4,5.9
		c-33,4.2-66.1,8.5-99.4,10.1c-1.7,0.1-3.6,0.1-5-0.7c-6.9-4.1,5-15.8,0.3-22.3c-1.4-1.9-3.8-2.6-5.3-4.4
		c-4.5-5.5,3.6-12.2,7.2-18.3c6.5-10.7-1.5-24-9.1-33.9c-1.7-2.2-3.5-4.5-6.1-5.5c-9.6-3.7-16.4,12.1-26.6,12.8
		c-11.7,0.8-20-18.3-30.6-13.4c-3.3-5.5-6.7-11-10-16.5c-2.1,6-11.2,3.1-16.2-0.8c-8.7-6.7-23.3-15.9-31.7-23.1
		c-1.1-1,1.9-1.9,2.1-0.5c0.2,1.5-1.4,2.5-2.7,3c-20.9,8.3-44.4,2-66.8-0.3c-13.4-1.4-27-1.3-40.5,0.3c-6,0.7-14.4,0.1-15.3-5.9
		c-0.3-1.7,0.3-3.5,0-5.2c-0.6-4.3-5.8-6.5-10.1-6.3c-4.4,0.3-8.5,2.2-12.9,2.5c-13.5,0.9-25.1-13.4-38.3-10.8
		c-5.1,1-9.3,4.4-14.1,6.3c-6.2,2.4-13.1,2.4-19.7,2.2c-15.3-0.3-30.6-0.6-46-0.9c-1.8,0-3.7-0.1-5.3-0.9c-2.2-1.2-3.3-3.6-4.7-5.6
		c-4.4-6.2-12.5-9-16.9-15.2c-4.4-6.2-0.1-18.3,7-15.4c-10.2-10.2-10.5-28.5-0.7-39.1c2.8-3,6.6-6.1,6.3-10.2c-0.2-2.7-2.1-5-3-7.6
		c-3.1-8.7,5.7-16.8,13.4-21.9c-6.2-3.6-7.5-12-6.6-19s3.6-14,2.8-21.1c-0.5-4.4-2.4-8.7-1.7-13.1c0.7-4.4,5.8-8.4,9.4-5.8
		c7.1,12.7,9.4,27.9,6.5,42.1c-0.6,2.7-1.3,5.7,0.1,8.1c1.1,1.9,3.3,3,5.4,3.6c11.5,3.3,25-4.6,27.8-16.2c2.3-9.5-1.8-19.2-4.5-28.7
		s-3.4-21,3.8-27.6c-1.7-3-3.4-6.1-5-9.1c3.2-2,7.2-2.6,10.8-1.7c7.3-8.6,12.9,3.4,14.5,14.5s-3.1,22.5-1.4,33.6
		c3.8,24.6,38.7,33.2,59.8,20c2.6,10.9,18.6,12.7,28.1,6.6c9.5-6.1,14.9-16.7,22.8-24.7c7.9-8,21.4-13.2,30.1-6.1
		c6.7,5.4,7.2,15.3,6.4,23.9c-0.6,6.5-2.1,13.7-7.5,17.3c-13,8.9-37.4-9-43.9,5.4c10.9,4.5,21.8,9.1,32.8,13.6
		c5.6,2.3,11.9,4.7,17.7,2.8c2.9-1,5.4-3,8.4-3.6c8.4-1.6,14.4,8.3,15.2,16.8c0.8,8.5-0.7,17.9,4.1,24.9c7.2,10.4,22.9,8.6,35.3,5.6
		c24.8-6,49.5-12,74.3-18c14.8-3.6,29.7-7.2,44.8-7.6c12.7-0.4,25.3,1.5,38,2.6c26.3,2.5,52.9,2.1,79.2-1
		c-3.3,7.6-6.3,17.4-0.5,23.3c5.4,5.5,14.3,3.5,21.9,2.5c30.8-4.4,62.9,12.1,92.7,2.8c-0.5,15.4,18.8,24.4,34,21.7
		c15.2-2.7,28.2-12.4,42.8-17.2c19.1-6.3,39.8-3.9,59.7-1.4c-8.8,8.2-15.9,18.2-20.7,29.2c4.2,0.7,8.4,1.3,12.7,2
		c-16.9,14.5-18.1,43.6-2.4,59.5c4.4,4.5,10.3,8,16.5,7.8c7.6-0.2,13.9-5.6,19.7-10.4c20-16.7,42.3-30.6,66.1-41.2
		c7.4-3.3,16.6-6.1,23.1-1.3c-4.8,7.1,4,17,12.5,16.6c8.6-0.4,15.5-6.7,21.7-12.7c15.4-15.1,31.6-31.7,34.9-53.1"/>
	<path class="st2" d="M2948.8,2773.6c-10.5,19.6-7.4,22.1-3.4,40c1.9,8.6-8.5,31.3,0.5,35.1c-2.7,9.7-5.4,19.3-8,29
		c-0.5,1.9-1.3,4-3.1,4.7c-1.5,0.6-3.2,0-4.8-0.1c-4.5-0.1-7.8,4.7-7.9,9.2s2.3,8.6,4.5,12.5c5.4,9.4,10.9,18.9,16.3,28.3
		c1.4,2.5,2.9,5.1,2.7,8c-0.4,5.9-7.3,12.6-2.7,16.3c3.4-2.5,8.1,2.5,7.1,6.6c-1.1,4.1-5.2,6.5-8.9,8.4c-5.3,2.8-10.6,5.6-15.9,8.4
		c1.5,8.3-2.2,17.4-9.2,22.3c-0.4-5.1-4.2-9.3-7.7-13.1c-3.5-3.8-7.2-8-7.6-13.1s4.6-10.8,9.4-8.9c-0.1-16.9-1.5-36.4-15.3-46.2
		c-1.4-1-2.8-1.8-3.9-3.1c-5.2-6.1,1.9-14.9,8.8-18.9c6.9-4,15.6-9.6,13.9-17.4c-2.1-1.1-4.2-2.3-6.3-3.4c1.5-7.3,11.8-9.4,15-16.2
		c1.3-2.8,1.2-6,1-9c-0.3-5.5-0.5-11-0.8-16.4c-1.1-23.5,15.5-5.9,26.7-14.9c11.5-9.3,7-33.8-0.4-43.6"/>
	<path class="st2" d="M2831,2991.9c-1.7,0.8-2.9,2.5-3.9,4.1c-5.7,9-10.5,18.6-14.2,28.6c9.3,2.5,19.8,0.6,27.6-5
		c5.8-4.1,10.1-10,15.7-14.4c7.9-6.2,26.3-14.6,19.6-26.9c-6,2-10.2,6.6-16,9.3C2850.7,2991.6,2839,2988,2831,2991.9z"/>
	<path class="st2" d="M3255.3,2550.8c-8.2,1.9-15.7,6.3-22.9,10.6c-18.8,11.2-37.7,22.5-56.5,33.7c-6.5,3.9-13.4,8.2-16.5,15.1
		c-1.7,3.9-2.2,8.4-4.8,11.7c-4.4,5.5-13.3,6-17.2,11.9c-3.4,5.3-1.2,12.3-2.9,18.4c-2.1,7.4-9.4,11.8-15.1,17s-10,14.3-5.1,20.2
		c3.7,4.4,11.1,4.7,14.3,9.5c2,3.1,1.7,7.1,1.3,10.8c-2.2,18.8-4.3,37.7-6.5,56.5c-0.4,3.7-0.8,7.5,0.4,11c3,8.5,14.6,11,22.9,7.5
		c8.3-3.5,14-11.1,19.5-18.2c18.7-24,39.9-46.1,63-66c2.9,4.6,5.8,9.2,8.7,13.8c5.2-7.3,8.8-15.8,10.3-24.6
		c-4.5-1.1-8.9-2.2-13.4-3.2c-4.5-11.4,7.6-21.9,18.1-28.2c5.5-3.3,11-6.6,16.5-10c2.5-25.5,13.7-48.9,19.5-73.6
		C3296.1,2543.7,3283.2,2544.5,3255.3,2550.8z"/>
	<path class="st2" d="M3077.5,2621.5c-5.5,4.6-13.4,4.7-20.6,5.1c-7.2,0.5-15.3,2.2-18.9,8.4c6.1,3.8,12.6,7,19.3,9.4
		c6.9,2.6,14.5,4.4,21.7,2.5s13.5-8.6,12.6-16c-0.1-1.2-0.5-2.4-1.3-3.2c-0.9-0.9-2.3-1.1-3.6-1.3c-7-1.1-14-2.2-21-3.4"/>
	<path class="st2" d="M2987.4,2525c-4.7,7.5-10.8,14.1-17.9,19.4c-1.6,1.2-3.4,2.5-3.6,4.5c-0.5,3.6,4.7,5.4,8.1,4.3
		c3.5-1.1,6.6-3.8,10.2-3.8c5.1-0.1,9,4.9,10.6,9.7c1.7,4.9,2.2,10.2,5.2,14.5c0.7,1.1,1.7,2.1,2.9,2.5c1.3,0.5,2.8,0.2,4.2-0.1
		c7.4-1.8,14.3-5.4,20.1-10.4c1.4-1.2,2.8-2.7,3.2-4.5c0.6-3.3-2.4-6.2-5.3-7.9c-5.5-3.3-11.7-5.3-18.1-6c-2.8-6-5.5-11.9-8.3-17.9
		c-0.6-1.2-1.2-2.5-2.2-3.4c-2.7-2.4-7.8-0.4-8.1,3.2"/>
	<path class="st2" d="M3162.4,2464.3c-3.6,2.5-7.5-4.6-11.9-4c-1.6,0.2-2.8,1.4-3.9,2.6c-3.1,3.2-6.2,6.6-7.6,10.8
		s-0.3,9.6,3.6,11.8c2,1.2,4.5,1.3,6.6,2.4c3.6,2.1,4.8,6.7,6.9,10.3c1.1,1.8,2.7,3.6,4.8,3.7c3.1,0.1,5-3.2,6-6.1
		c3-8.7,4.1-18.1,3.2-27.3c-0.1-1-0.3-2.1-0.9-2.9c-0.9-1.1-2.5-1.5-3.9-1.7c-7.7-1.3-15.3-2.5-23-3.8"/>
	<path class="st2" d="M2938.9,2461.7c-5.9,0.5-11.7,1-17.6,1.5c-3.4,0.3-7.2,0.8-9.5,3.4c-1.4,1.6-2,3.8-2.1,6
		c-0.5,7.3,4.3,14.7,11.3,16.8c7,2.1,15.3-1.8,17.8-8.7c2.4-6.9-2-15.5-9.1-17"/>
	<path class="st2" d="M2844.5,2428c4.6,5.4,9.3,10.8,13.9,16.2c5.8-9.1,7-21,3.3-31.1c4.6-11.6,19.7-14.1,32.1-14.8
		c3.2-0.2,6.7-0.3,9.6,1.2c1.2,0.6,2.5,1.6,3.8,1.4c1.6-0.2,2.5-1.8,3.2-3.2c4.6-9,9.6-18.7,18.7-23.1c4.2-2,8.9-2.6,13.4-3.6
		c16.5-3.3,31.8-10.7,46.9-18c-3.3-11.4-12.9-20.9-24.4-24.1c-3-0.8-6.2-1.3-9.2-0.5c-3.1,0.8-5.7,2.8-8.5,4.3
		c-6.3,3.3-13.5,4.1-20.4,5.8c-23.3,5.8-43.2,23.9-51.2,46.5c-0.9,2.4-1.7,5-3.7,6.5c-1.8,1.3-4.1,1.5-6.3,1.4
		C2841.7,2392.2,2824.8,2405.2,2844.5,2428z"/>
	<path class="st2" d="M2661.9,2454c1.1,9.3,0.2,18.7-2.6,27.6c-0.2,0.6-0.4,1.1-0.3,1.7c0.2,3.1,5.2,2.2,7.2-0.2
		c2-2.4,4.3-5.7,7.2-4.7c1.6,0.6,2.4,2.4,3,4c1.7,4.5,3.5,9,5.2,13.4c7.8-7.2,8.2-21,0.9-28.6c-7.6-7.9-20.8-9.1-27-18.1"/>
	<path class="st2" d="M2635.4,2477.4c-6.1-1.8-13.4-1.4-18,3c-4.6,4.4-4.9,13.2,0.5,16.5c3.2,1.9,8,2.3,9,5.8c0.4,1.4,0,2.8,0.1,4.2
		c0.1,4.8,4.7,8.4,9.4,9.2s9.4-0.7,14-2.1c1.2-4.4-4.4-7.5-6-11.7c-1.9-4.8,1.4-10.2,0.2-15.2c-1.5-6.2-8.9-8.6-15.1-9.9"/>
	<path class="st2" d="M2435,2551.9c-10,4.5-11.8,20.6-2.9,27.1c5,3.6,11.5,4,17.7,4.3c7.9,0.4,16.6,0.5,22.8-4.5
		c-8.4-11.5-18.7-21.5-30.4-29.7c-5.4,2.6-10.9,5.2-16.3,7.7"/>
	<path class="st2" d="M2292.2,2553.4c0-7.1,0.2-14.5,3.3-20.9c3.1-6.4,9.7-11.7,16.8-10.9c6.6,0.8,11.4,6.2,15.7,11.2
		c3,3.6,6,7.2,9,10.8c7.4,8.8,15.2,20.4,10.4,30.9c-3.7,8.2-13.8,11.5-22.9,11.5c-7.7,0-15.5-1.6-22.5-4.8c1.5-4.6,6.5-6.9,11.2-8.2
		c4.7-1.3,9.8-2.2,13.1-5.7c3.3-3.5,2.9-10.7-1.8-11.8c-4.6-1.1-10.5,3.9-13.4,0.1c3.7,1.1,7.7-1.8,8.9-5.4
		c1.2-3.7,0.2-7.7-1.6-11.1c-1.3-2.5-3.2-4.9-5.8-5.9c-4.2-1.7-9.2,0.8-11.9,4.5s-3.5,8.4-4.3,12.9c-4.1-0.5-7.8-3.8-8.6-7.9"/>
	<path class="st2" d="M2483,2389.1c6.1-3.4,11.2-9.5,11.5-16.5c0.1-2.2-0.3-4.6,0.5-6.7c0.8-2,2.5-3.4,4.2-4.6
		c6.1-4.6,12.1-9.3,18.2-13.9c4.9-0.3,9.9-0.6,14.3-2.6s8.3-6.2,8.4-11.1c0.2-5.9-5-10.8-10.7-12.3s-11.6-0.5-17.4,0.6
		c-3.3,0.6-7,1.5-8.7,4.4c-1.9,3.4,0,7.6,2,10.9c-2.1-3.4-26.4,0.5-29.8,1.3c5.2,4.6,11.3,8.3,16.4,13.1
		c-13.5,7.9-55.8,7.8-63.9,21.3C2412.1,2399.6,2471.2,2395.6,2483,2389.1z"/>
	<path class="st2" d="M2296.7,2446.7c2.6,3.1,5.3,6.4,9.2,7.4c7.1,2,14.2-4.8,15.3-12.1c2.8-19.5-28.9-54.9-49.8-52.2
		C2235.3,2394.4,2287.9,2435.9,2296.7,2446.7z"/>
	<path class="st2" d="M2230.4,2419.1c-3.3-5.7-12.5-3.6-16.7,1.5s-5.8,11.9-10.1,16.9c-4.1,4.8-10.7,8.4-10.8,14.7
		c8.6,4.4,18.6-2.2,26-8.4c3.8-3.2,7.5-6.3,11.3-9.5c4.2-3.5,8.7-7.7,8.6-13.1c-0.1-6.2-7.9-10.7-13.3-7.9"/>
	<path class="st2" d="M2158.2,2469.9c-7.5,5.6-18.1-7.9-9-12.6C2156.7,2453.5,2165.4,2464.6,2158.2,2469.9z"/>
	<path class="st2" d="M2297.8,2251.3c-2,10.2,1.1,21,7,29.6c4.2,6.2,10,12,10.6,19.4c0.4,5.2-0.9,12.3,4.1,13.9
		c2.7,0.9,5.9-0.7,8.2,0.8c3.8,2.4,1.7,10.5,6.1,11.2c5-5.8,12.7-8.3,20.1-10.6c6.1-1.9,12.2-3.7,18.3-5.6c1.9-0.6,3.8-1.2,5.3-2.5
		c3.4-3.2,2.6-8.8,0.8-13.2s-4.1-9-2.7-13.5c0.7-2.2,2.2-4.1,3.5-6c12.1-17.4,11.5-58.2-15.5-58.4c-10.8-0.1-26,8.4-36.5,11.1
		C2312.8,2231.3,2301.1,2234.2,2297.8,2251.3z"/>
	<path class="st2" d="M2202,2273.3c5.8,4.3,7.9,12.2,7,19.3c-0.9,7.1-4.2,13.7-7.4,20.1c-0.8,1.6-1.7,3.2-3.1,4.2
		c-4.2,2.8-9.8-1.7-11.7-6.4c-4.9-11.7,0.4-26.6,11.5-32.7"/>
	<path class="st2" d="M2056.9,2298.1c-0.1,3.1-0.8,6.1-0.3,9.2c1.5,9.9,14.6,15.9,13.8,25.8c10.2,0.2,20.3-5.4,25.4-14.2
		c0.8-1.4,1.5-3,1.3-4.6c-0.2-1.5-1.1-2.9-2.1-4.1c-8.6-11.3-18-21.9-28.1-31.8c-5.1-5-14.4-11.2-17.8-2
		C2047.5,2280.9,2057.1,2291.9,2056.9,2298.1z"/>
	<path class="st2" d="M2025.5,2359.5c-7.1-3.7-16.6,1.5-19.3,9s0,16.2,4.8,22.7c7.7,0.4,15.6-2.9,20.8-8.6c3.4-3.7,5.8-8.7,5.4-13.7
		c-0.4-5-4.2-9.9-9.1-10.6c-6.1-0.9-13.7,3.7-17.6-1.1"/>
	<path class="st2" d="M2043,2389.3c-1.5-2.3-5.6-0.3-5.9,2.5c-0.2,2.8,1.7,5.2,3.6,7.3c3.6,4,7.6,8.2,12.8,9.7
		c5.2,1.5,12-1.1,12.9-6.4c1.1-6.2-5.6-10.8-11.3-13.5c-3.9-1.9-9.1-3.6-12.3-0.6"/>
	<path class="st2" d="M2860.7,2273.4c-2.4,8.9-13.6,14.1-21.9,10.3c-2-0.9-3.9-2.2-6-2c-2.8,0.3-4.8,3.2-4.9,6
		c-0.1,2.8,1.1,5.5,2.2,8.1c2.9,6.4,5.8,12.8,8.7,19.2c2.2,4.8,4.5,9.8,8.6,13.2c4.1,3.4,10.4,4.6,14.6,1.4c2.6-2,3.8-5.2,5.9-7.7
		s5.8-4.4,8.5-2.5c1.3,0.9,2.1,2.6,3.7,2.9c1.4,0.2,2.6-0.8,3.5-1.8c5.1-4.8,10.6-11.2,8.8-18c-0.8-3-3.1-5.5-3.7-8.5
		c-0.4-2-0.1-4.2-1-6c-1.1-2.1-3.5-3.2-5.7-4.1c-6.1-2.5-12.2-5-18.3-7.5"/>
	<path class="st2" d="M2796.7,2220.5c7.3,1.7,11.6,9.8,11.7,17.3c0.1,5.2,0,12.2,5,13.4c4.3,1,9.1-3.8,12.6-1.2
		c5-5,0.7-15.4-6.4-15.3c-2.2-3.6,5.9-7.4,3.9-11.2c-0.6-1.2-2.1-1.7-3.4-2.4c-7.7-4.2-7.6-18.5-16.3-19.4c-2.1-0.2-4.6,0.4-6.2-1
		c-1.6-1.5-1.5-4.7-3.6-5.3c-1-0.3-2,0.1-2.9,0.6c-3.4,1.6-7.1,3.6-8.7,7c-2.2,4.6,0.3,10.4,4.4,13.5s9.2,4.3,14.2,5.4"/>
	<path class="st2" d="M1453.5,2612.5c1.4,5.3,0.3,11.1,2.4,16.2c0.5,1.2,1.2,2.5,1.2,3.8c0,2.2-1.7,4-2.8,6
		c-3.7,7.1,2.1,15.2,7.5,21c9.3,10.1,21.5,21.2,34.8,17.9c-0.2-12.6-0.4-25.2-0.6-37.8c0-1.1,0-2.2,0.5-3.1c2.7-5,11.3,2.9,15.7-0.7
		c2.1-6.2-1.4-13.6-7.4-16.1c-2.3-1-4.9-1.2-7-2.5c-16.9-9.9-15.1-45-41.5-37.3c-6.8,2-18.9,11.5-17.7,19.7
		C1439.8,2608,1450.8,2602.5,1453.5,2612.5z"/>
	<path class="st2" d="M1936.1,2439.6c0.4,2.3,0.9,4.7,2.5,6.5c3,3.5,8.5,3.2,13.1,2.5c16.3-2.3,32.7-4.6,49-6.9
		c4.5-0.6,9.3-1.4,12.7-4.5c5.1-4.7,5-12.7,4-19.5c-1.2-9.2-3.5-18.9-10.4-25.2c-6.9,3.8-15.4,4.6-22.9,2
		c-4.6-1.6-10.5-4.1-13.7-0.3c-2.5,3-0.8,7.8,2.3,10.3c3,2.5,7,3.5,10.4,5.4c3.4,1.9,6.5,5.6,5.6,9.4c-0.9,3.9-5.5,5.9-9.5,5.9
		c-14.6-0.2-14.9-19.8-27.4-20.4C1935,2403.8,1934.3,2429,1936.1,2439.6z"/>
	<path class="st2" d="M2007.2,2204.9c-7.7-2.8-16.5-0.1-22.8,5.2s-10.2,12.7-13.2,20.3c6.4,3.6,12.8,7.1,19.3,10.7
		c2.6,1.5,5.4,3,8.4,3c4.9,0.1,9.3-3.6,11.5-8c6.3-12.3-3.1-29.6-16.8-31.1"/>
	<path class="st2" d="M2128.8,2081c-0.1,6.5,2.7,13.1,1,19.3c-2.2,8.1-11.7,14.1-10.6,22.5c0.6,4.6,4.5,8.3,8.8,9.9
		s9.1,1.5,13.8,1.3c6.2-0.4,13.5-1.7,16.2-7.4c0.8-1.8,1.1-3.9,1.3-5.9c0.7-7.7,0.9-15.5,0.6-23.3c-0.2-6.1-0.8-12.5-3.8-17.8
		C2150.1,2069,2128.9,2063.6,2128.8,2081z"/>
	<path class="st2" d="M1951.8,2116.9c5.6-0.8,11.4-0.9,17-0.4c1.6,1.9,0.4,4.8-1.3,6.5c-1.7,1.7-4,3-5.2,5.1
		c-1.2,2.1-1.2,4.7-1.7,7.1c-0.9,4.4-3.8,8-5.6,12.1c-1.8,4.1-2.4,9.4,0.7,12.5c3,3,8.2,2.7,11.8,0.5c3.6-2.3,6-6,8.2-9.6
		c4.4-7,8.9-14.5,8.9-22.8c0-4.4-1.2-9,0.5-13.1c1.7-4.2,6.1-7.1,6.8-11.5c-0.4,2.1-9.6-15.5-9.8-15.8c-3.9-6.2,3.9-9.7-6.8-9.2
		C1962.5,2078.8,1953.9,2107.3,1951.8,2116.9z"/>
	<path class="st2" d="M2085.4,2011.6c-7.1-3.2-15,2.2-20.8,7.4c-4.3,3.8-8.6,7.5-12.9,11.3c6.4,2.7,13.4,5.4,20.2,3.9
		s12.6-9.3,9.4-15.4"/>
	<path class="st2" d="M1668.9,1953.4c-14.3-1.1-29.6-1.9-41.9,5.5c-2,1.2-4.1,2.9-4.3,5.2c-0.6,6.4,10.9,6.5,13.3,12.4
		c0.6,1.6,0.5,3.4,0.6,5.2c0.5,4.8,4,9.1,8.5,10.5c4.5,1.5,9.9,0,13.1-3.6c5.5-6.2,3.7-16.1,7.9-23.2c2.1-3.4,5.5-6.1,6.5-10
		c0.9-3.7-1-8-4.4-9.8s-8-0.9-10.5,1.9"/>
	<path class="st2" d="M1604.4,1976c-3.7,0-7.5,0-10.9,1.5s-6.3,4.9-5.9,8.6c0.5,5.2,7.3,8,12,5.8c4.7-2.2,7.1-7.7,7.5-12.9"/>
	<path class="st2" d="M1605.5,2164.1c15.6,1.8,31.9-3,44.1-12.9c3.2-2.6,27.3-21.7,27.1-24.2c-0.7-9.5-17.9-3.4-24-1.5
		c-10.2,3.1-19.8,8.3-28,15.1C1622.2,2142.7,1605.6,2164.1,1605.5,2164.1z"/>
	<path class="st2" d="M1805.2,2077.3c-9.1-3.6-20.6,3.3-21.8,13c-0.1,0.9-0.1,1.9,0.5,2.6c0.8,0.9,2.2,0.8,3.4,0.6
		c3.9-0.5,8-1.2,10.8-3.9c2.8-2.7,3.1-8.2-0.3-10"/>
	<path class="st2" d="M1931.6,1992.5c-4.6,2-9,5.1-11.1,9.6c-1.8,3.8-1.8,8.1-1.9,12.2c-0.1,13-0.2,26.1-0.3,39.1
		c0,3.7,1.3,8.9,5.1,8.5c1.6-0.2,2.8-1.4,3.9-2.6c3.9-4.3,7.9-8.5,11.8-12.8c5.5,3.7,13.3,0.1,17-5.4c3.8-5.4,5-12.2,7.6-18.3
		C1975,1997.5,1959.9,1980.1,1931.6,1992.5z"/>
	<path class="st2" d="M2105.5,1862.1c-4.5-5.6-12.7-7.8-19.5-5.3c-0.8-3-0.5-6.3,0.8-9.1c-2.2-3.9-8.1-0.7-10.9,2.7
		c-4.5,5.4-8.6,11.1-12.5,17c-3.5,5.3-6.7,11-7.4,17.4c-0.6,6.3,2.1,13.4,7.8,16.1c3.1,1.4,6.6,1.5,9.9,2
		c14.6,2.2,27.1,14.2,29.8,28.7c4.6-2.1,9.8,2,11.8,6.6c0.9,2.1,1.7,4.8,3.9,5.5c1.5,0.5,3.2,0,4.7,0.4c3.4,1,3.8,5.6,5.2,8.9
		c3.6,8.3,16.4,10.2,18.7,19c0.9,3.4,0.1,7.7,2.8,10.1c2.1,1.8,5.3,1.4,7.7,0c8.7-5,7.6-17.8,4.4-27.4c-1.8-5.4-3.8-10.6-6.5-15.6
		c-2.2-4.1-5-8.1-6.2-12.6c-1.3-4.5-0.8-9.9,2.6-13.1c-4.2-6.4-6.4-14.1-6.2-21.8c-0.1,6-24-5.8-25.6-7.2
		C2113.4,1878,2111.5,1869.4,2105.5,1862.1z"/>
	<path class="st2" d="M1980.5,1455.6c-2.1,3.8-3.2,9.1,0,12c16-1.1,32.3,5.7,42.8,17.7c0.8,1,1.7,2.1,1.6,3.3c0,1.9-2,3.1-3.4,4.3
		c-4.5,3.7-6.3,10.2-4.4,15.7c7.6-2,15.5,1.4,22.9,3.9c7.5,2.5,16.5,4,22.5-1c7.2-5.9,5.8-18-0.4-24.9c-6.2-6.9-15.6-9.8-24.6-12.2
		c-5.4-1.4-11.5-3.2-14.3-8.1c-8-14.1,12.7-34.5-12.1-42.2C1986.6,1416.5,1987.6,1442.6,1980.5,1455.6z"/>
	<path class="st2" d="M2253.4,2069.2c4.6-4.4,5.1-11.4,6.1-17.7c1-6.3,3.7-13.4,9.8-15.2c1.3-0.4,2.9-0.5,3.9-1.5
		c1.7-1.7,0.7-4.6-0.6-6.7c-9.5-15.5-29.7-26.2-47.7-27.3c-4.5-0.3-7.4,3.8-11.5,3.2c-3.3-0.5-6.1-4.4-9.6-5.1
		c-6.4-1.4-14.3-4-20.9-1.9c-19.6,6.5-3.1,14.6,8.4,23.7C2211.8,2037.1,2232.5,2053.3,2253.4,2069.2z"/>
	<path class="st2" d="M2306.5,2081.3c-5.9-6-15.7-7.7-23.2-4c-0.3,4.7,1.2,9.5,4.3,13.1c1.3,1.6,3,3.1,3.3,5.1
		c0.7,4.8-6.5,7.7-6.4,12.6c0.1,5.3,7.6,6.2,12.9,5.3c6.3-1.1,12.6-2.1,18.8-3.2c1.8-0.3,3.6-0.6,5.2-1.4c2.5-1.2,4.3-3.4,6-5.6
		c4.4-5.6,9-13.2,5.2-19.3c-1.3-2.1-3.4-3.5-5.4-4.8c-3.3-2.2-6.6-4.4-10.4-5.3c-5.5-1.4-11.2,0-16.8,0.2
		c-5.6,0.2-12.1-1.5-14.6-6.5"/>
	<path class="st2" d="M2245,2228.9c-8.5,4.6-9.2,16.7-15.5,24.1c-4.9,5.8-13.3,8.8-16.1,15.9c-2.7,6.9,1,14.4,4.6,20.9
		c5.7-1.7,9.9,5.8,15.6,7.5c2.4,0.7,5.1,0.4,7.6-0.1c6.8-1.4,13.5-3.7,19.7-6.8c4.2-2.1,8.4-4.9,10.4-9.1c2.8-6.1,0.4-13.1,0-19.8
		c-0.4-7.5,1.9-15.1,6.6-21c1.4-1.8,3-3.5,3.6-5.7C2286,2218,2251.1,2225.6,2245,2228.9z"/>
	<path class="st2" d="M2546.9,2011.8c-4.9,3.8-6.3,10.5-9.4,15.8c-6,10-18.6,15.8-21.4,27c-1,3.9-0.2,8.8,3.4,10.6
		c2.5,1.2,5.4,0.6,8.2,0.5c7.4-0.4,15.1,2.6,22.1,0.3c9.4-3.2,13.1-14.2,15.5-23.9c8,1.4,16.3,1.3,24.3-0.2
		c28.5-5.6,50.9-30.3,59.1-58.2c-11-0.9-23.5-1.4-31.6,6.2c-3.8,3.6-6.1,8.6-9.2,12.7c-3.8,5-9,9-14.9,11.3
		c-3.9,1.5-8.4,2.3-12.3,0.9c-7.5-2.8-5.5-5.9-13.5-7.2C2561.3,2006.7,2551.5,2008.2,2546.9,2011.8z"/>
	<path class="st2" d="M2723.1,2123c-0.8,3.9-6.2,4.2-9.7,6.1c-5.1,2.8-6.2,9.6-6.6,15.5c-0.5,6.1-1,12.4,0.6,18.4
		c1.6,6,5.6,11.6,11.5,13.4c3.5-5.5,3.1-12.7,0.4-18.6c-2.7-5.9-7.4-10.6-12.2-14.9c7.8-1.8,15.6-3.6,23.4-5.4
		c-1.8-2.5-4.4-4.5-7.4-5.6"/>
	<path class="st2" d="M2736.7,1951.5c-10.2-1.9-18.3,10.7-16.2,20.9c2,10.2,10.3,17.8,18.1,24.7c7.6-5.7,15.5-11.5,24.7-13.6
		c9.2-2.1,20.3,0.7,25,9c3.6,6.3,4,15.8,10.9,18c1.3,0.4,2.6,0.5,3.9,0.5c9.9,0.3,21.5-2.1,25.9-11c2-4,2.5-9.2,6.5-11.3
		c6.6-3.5,17,5,21.1-1.2c1-1.6,1.1-3.7,1.9-5.4c4.6-9.9,24.3,1.7,29.5-7.9c-2.6-9.5-5.3-18.9-7.9-28.4c-9.1-3.1-18.7-4.9-28.3-5.3
		c0.7,5.9,0.7,11.9,0,17.8c-6.8-2.6-16.5-4.6-22.5-8.6c-5.4-3.5-6.5-7.7-11.2-11.5c-8.7-6.9-19.7-11.9-31.4-11.7
		C2762.7,1926.9,2757.1,1955.2,2736.7,1951.5z"/>
	<path class="st2" d="M2867,2081.1c-6.3-2.1-13.2-2.7-19.7-1.5c-1.5,0.3-3.1,0.7-4.2,1.7c-2.7,2.4-1.7,7,0.4,10
		c5.5,7.7,17.5,9.7,25.2,4.2c2.1-1.5,3.5-5.2,1.1-6.1"/>
	<path class="st2" d="M2459,2228.3c-4.1,3.2-8.1,6.4-12.2,9.6c3,2.8,4.1,7.1,6.1,10.7c2,3.6,5.9,7,9.9,5.8c3.8-1.2,5.3-6.2,4-10
		c-1.3-3.8-4.5-6.6-7.6-9.2"/>
	<path class="st2" d="M2336.9,2348.3c-8.1,5.8-14.4,14.2-17.5,23.6c6,3.2,14.1,2,18.9-2.9c4.8-4.9,5.8-13,2.4-18.9"/>
	<path class="st2" d="M2458.9,1608.1c2.6,7.6,5.3,15.4,10.2,21.8c4.9,6.4,12.6,11.3,20.6,10.7c3-0.2,6.1-1.1,8.9-0.1
		c2.7,1,4.5,3.6,6,6.1c8.8,13.9,17.8,28.7,18,45.1c0.2,16.4-12.5,34.1-28.9,32.8c-2.9-0.2-6-1-8.8-0.2c-5.4,1.6-7.4,8.8-5.5,14.1
		c1.9,5.3,6.5,9.1,10.9,12.6c14.1,11.4,28.3,22.8,42.4,34.3c7.3-6.2,12.8-14.5,15.6-23.7c5.5,0.4,11-0.3,16.2-2.1
		c4.1-7.6-8.9-16.9-4.4-24.3c1.1-1.8,3-2.9,4.6-4.1c11.2-8.5,11.8-24.9,11.5-38.9c-0.5-20.3-1.4-41.9-12.7-58.8
		c4.1,3.3,10.3-1.1,12-6.1c1.6-5,0.9-10.6,2.8-15.5c-0.7-7-8.4-11.1-15.3-12.5c-6.9-1.4-14.5-1.6-20-6.1c-2.9-2.3-4.8-5.6-7.6-8
		C2519.9,1570.9,2468.5,1592.3,2458.9,1608.1z"/>
	<path class="st2" d="M2385.1,1580.6c-7.5-3.7-17,3.2-18.3,11.4c-1.3,8.3,3.5,16.4,9.7,22c0.9,0.8,2,1.7,3.2,1.9
		c2.5,0.5,4.9-1.4,6.7-3.3c3.7-3.7,7.4-7.5,9.4-12.2c2-4.8,1.8-10.9-1.9-14.5c-4.2-4.2-11-3.9-17-3.9c-6-0.1-13.2-1.9-14.9-7.6"/>
	<path class="st2" d="M2579.8,1233.9c3.1,7.9,6.1,17,2.1,24.4c-2.9,5.3-8.7,8.4-14.5,10.1c-14.9,4.4-30.8,2.1-46.3,2
		c-15.5-0.1-32.5,2.8-42.6,14.5c-10.4,12.1-10.3,30.9-2.5,44.8c7.8,13.9,21.8,23.4,36.6,29.2c14.6,5.7,32.7,7.8,44.8-2.2
		c8.9-7.4,12.3-19.5,19.9-28.3c5.8-6.7,14-11.3,22.7-12.6c5.4-0.8,11.4-0.3,15.8,2.9c4.4,3.3,6.6,9.9,3.8,14.5c-1.5,2.4-4,4-6.3,5.5
		c-17.5,10.9-35.1,21.7-52.6,32.6c-1.3,0.8-2.8,1.8-3.3,3.3c-0.6,1.7,0.4,3.6,1.4,5.1c7,10.7,19.3,17.8,32.1,18.6
		c7,0.4,14.2-0.9,21.1,0.8c6.8,1.7,12.4,6.2,18.4,9.9c23.1,14.3,53.3,16.3,78.2,5.3c2.7-8.2-3.2-16.9-10.2-22
		c-7-5.1-15.4-8.2-21.6-14.3c-6.2-6.1-9.2-17-3.1-23.2c8.4-8.7,23.6,0.8,27.8,12.1s3.8,24.6,11.1,34.2c7.9-0.2,15.7-0.4,23.6-0.6
		c-7-17.3-13.9-34.6-20.9-51.9c-1.9-4.8-4-9.9-8-13.2c-4-3.4-10.4-4.5-14.3-1c-2.5-22.8-21.9-39.6-39.9-53.9
		c5.7-4.2,11.9-9.3,12.6-16.4c0-7.7-6.8-11.9-13.6-9.5C2639.4,1234.7,2602,1230.5,2579.8,1233.9z"/>
	<path class="st2" d="M2185.8,1161.8c-4-4.4-11.7-3.9-16.2,0s-6.1,10.4-5.6,16.3s2.7,11.6,5,17.1c0.5,1.3,1.2,2.8,2.4,3.4
		c2.5,1.3,5.3-1.2,7.1-3.4c4.7-6,9.4-11.9,14.2-17.9c1.3-1.7,2.7-3.5,2.8-5.6c0.1-1.9-0.8-3.7-1.9-5.3c-3.7-5.4-9.5-9.4-15.9-10.9"
		/>
	<path class="st2" d="M2218.6,945.6c-1.6,2.7-1.5,5.9-2.1,8.9c-2.1,10.8-13.6,18.9-24.5,17.3c-3.3,8.4-1,18.8,5.6,25
		c-1.5,9.5-3.1,19.1-4.6,28.6c-0.4,2.2-0.7,4.6,0.3,6.6c2.7,5.4,10.9,2.9,15.6-0.8s11.3-8.1,16-4.4c-1.9,9-0.4,19.2,5.9,25.9
		c6.3,6.7,17.9,8.6,24.8,2.6c-0.6-8.9-9-15.4-10.9-24c-2.2-9.9,4.8-19.8,13.6-24.8c3.3-1.8,7.7-3.1,10.5-0.5
		c1.3,1.2,1.9,3.1,2.2,4.8c0.9,5.9-1.2,12.1-5.4,16.3c-1.7,1.7-3.8,3.2-4.3,5.5c-0.8,3.2,2.1,6.4,5.3,7.2s6.6-0.1,9.8-0.9
		c2.1-0.6,4.6-1.1,6.4,0.3c4.5,3.5-3.1,10.9-0.8,16.1c6.2-3.6,14.7,0.8,20.9-2.8c6.6-3.8,6-13.6,3.3-20.7s-6.6-14.9-3.7-21.9
		c1.2-2.8,3.3-5.1,5.4-7.3c5.7-6,11.5-12,17.2-17.9c2.7-2.8,5.5-5.8,6.7-9.5c2.2-7-1.9-14.3-5.8-20.5c-1-1.6-2.1-3.3-3.9-4
		c-1.8-0.7-3.7-0.2-5.6,0.3c-5.4,1.5-10.7,2.9-16.1,4.4c-2.2,0.6-4.8,1.8-4.7,4c0.1,1.2,1,2.1,1.5,3.2c2.8,5.8-5.4,14.8-5.3,21.2
		c-6.6,3.6-14.3,5.1-21.7,4.4c-0.2-19.8-12.9-16.2-28.1-17.7c-13.8-1.4-14.3-1.4-16.6-11C2225.4,959.6,2227.4,930.6,2218.6,945.6z"
		/>
	<path class="st2" d="M2391.8,739.1c-14.9-2.7-29.8-5-44.8-6.8c-3.6-0.4-7.5-0.7-10.5,1.4c-3,2.2-3.9,6.4-3.1,10
		c0.7,3.6,2.8,6.8,4.8,9.8c3.1,4.7,6.3,9.6,10.9,12.9c6.9,4.9,16.2,6,22.3,11.9c1.7,1.7,3.2,3.8,5.4,4.7c2.3,1,4.8,0.6,7.3,0.2
		c10.9-1.8,21.7-3.6,32.6-5.4c-2.1-6.5-2.3-13.5-4-20.1c-1.7-6.6-5.6-13.3-12.1-15.5c-2.5-0.8-5.2-0.9-7.9-1.3
		c-10-1.6-18.5-7.7-26.6-13.6"/>
	<path class="st2" d="M1422.9,1473.8c0.1,2,1.8,3.7,3.7,4.4c4,1.5,8.5-0.4,12.5-1.8c4.1-1.5,9.2-2.3,12.2,0.7c1.3,1.3,2.2,3.3,4,3.9
		c1.3,0.4,2.7-0.1,3.9-0.5c5.6-2.1,20.2-4.6,21-12.3c0.6-6.7-12.6-14.4-18.2-15.4c-10.3-1.8-11.4,5-18.7,9.3
		C1438.4,1465,1422.4,1464.7,1422.9,1473.8z"/>
	<path class="st2" d="M1551,1407.7c0.6-7.7-10.1-12-17.1-8.7s-11.2,10.5-15.7,16.8c-9.5,13.3-22.7,23.9-37.7,30.3
		c4.4,5.2,8.8,10.4,13.3,15.6c3.6,4.2,7.6,8.7,12.9,10.1c4.3,1.1,8.9,0,13.4-0.2c18.9-1.1,35.3,12,49.5,24.4
		c15.3,13.3,30.5,26.5,45.8,39.8c8,7,16.1,14,23.6,21.5c3,3,6,6.1,9.5,8.4c2.5,1.6,5.3,2.8,7.2,5.1c4.1,4.9,2.6,13,7,17.6
		c3.6,3.7,9.5,3.6,14.6,4.5c17.1,3.1,28.9,23.2,23.2,39.7c-1.5,4.5-4.1,8.7-4.3,13.4c-0.4,8.6,7.4,15.5,15.5,18.4
		c8.1,2.9,16.9,3.1,25.1,5.9c7.6,2.6,15.9,7.5,23.2,3.8c3.1-1.6,5.4-4.6,8.8-5.7c3.6-1.2,7.5,0,11.2,1.2c12,4,24.8,7.7,37,4.5
		c3.2-0.8,6.4-2.2,9.7-1.8s6.6,3.3,5.8,6.5c6.3-2.1,15.4-3,17.7,3.2c1.7,4.8-2.5,9.5-5.4,13.8s-3.3,11.9,1.7,12.9
		c3,0.6,5.7-1.9,8.7-2.3c4.5-0.7,8.5,3.6,9.3,8.1c0.8,4.5-0.7,9-2.3,13.3c7.6,0.8,15.3,1.7,22.9,2.5c-7.1,6.4-14.3,12.9-21.4,19.3
		c9.4,1.5,19.1,0.7,28.2-2.2c-0.8,9.3-4.8,18.4-11.2,25.2c6-0.6,12.1-1.2,18.1-1.8c-0.2,4.1-0.5,8.2-0.7,12.4
		c-5.1-3.3-10.5,5.2-8.5,10.9c2.1,5.7,7.5,9.7,9.4,15.4c9.1-0.8,18.8-1.4,26.7,3.3c7.8,4.6,11.8,16.7,5.2,23
		c7.4-0.2,11.7,7.9,15,14.5s10.2,13.8,16.8,10.6c-2.6-5.8,2.6-12.7,8.7-14.3s12.6,0.5,18.6,2.6c-4.4,7.1,2.1,17.3,10.4,18.5
		s16.3-4.6,20.4-11.9c4.1-7.3,5.2-15.9,6.1-24.2c1.6-13.4,3.1-26.8,4.7-40.1c0.3-2.5,0.5-5.1-0.6-7.3c-3.5-6.8-13.6-2.6-20.7,0.1
		c-11.3,4.3-24.8,1.9-33.8-6.1c-3.7,1.3-6.5,4.6-7.2,8.5c-7.6-10-22.2-10.6-32.8-17.2c-16.2-10.2-20-31.8-22.1-50.8
		c-0.5-4-0.9-8-1.4-11.9c-10.7-7.3-15.3-22.4-10.3-34.4c-2.9-1.3-5.8-2.5-8.6-3.8c-1.8-14.9-3.5-29.7-5.3-44.6
		c6.3-0.3,12.3-4,15.4-9.4c-17.4-9.5-30.8-26-36.7-44.9c3.4-1.7,6.8-3.4,10.2-5c2.1-9-10.4-13.7-19.7-13.8
		c-20.9-0.2-41.9,2.1-62.7,0.1s-42.2-9.1-55.9-24.9c-6.1-7-12.5-16.5-21.7-15.4c-3.2,0.4-6.2,2.1-9.4,2.5c-4.5,0.5-8.9-1.6-13-3.8
		c-25.8-13.6-51.7-29.6-67.1-54.4c2.2,0.1,4.4,0.3,6.6,0.4c-3.6-7.7-1-16.8-2.1-25.2s-10.6-17.1-17.3-11.8
		c9.9-10.7-20.2-24.6-26.7-27.3C1578,1386.5,1553,1393.9,1551,1407.7z"/>
	<path class="st2" d="M1621.3,1332.3c-2.2,2.3-3.3,5.8-1.9,8.7c1.8,3.8,6.9,4.8,10.8,3.6c0.9-0.3,1.7-0.6,2.5-1
		c2.9-1.4,5.4-3.6,8.1-5.4c3.4-2.4,7.5-4.3,11.6-3.4c1.8,0.4,4,1.2,5.1-0.3c0.5-0.6,0.5-1.5,0.4-2.2
		C1657.4,1314.2,1629.2,1324,1621.3,1332.3z"/>
	<path class="st2" d="M1703.8,1333.1c2.9,3.8,5.7,8.2,5.4,13c-0.1,1.9-0.7,3.7-0.5,5.5c0.9,6.2,10.4,8.2,11.4,14.4
		c1.4-1,2.9-2,4.3-3.1c1.9,3.7,5.7,8,9.4,6.1c2.4-1.3,3.2-4.9,5.8-5.8c1.1-0.4,2.3-0.1,3.5-0.1c6.4,0.1,11.3-7.5,9.2-13.5
		c-2.1-6-9.9-9-15.8-6.6c-1.2,0.5-2.5,1.2-3.8,1.2c-3.1-0.1-4.5-3.9-6-6.5c-2.3-4-6.5-6.4-10.5-8.7c-7.3-4.2-14.7-8.5-22-12.7
		c-1.3-0.8-2.7-1.5-4.2-1.4c-1.4,0.1-2.3,1.6-2.5,2.9c0,0,1.1-1.4,1.2-1.5C1694.5,1320.4,1699.4,1327.2,1703.8,1333.1z"/>
	<path class="st2" d="M1792.3,1306c-0.4,2.5-0.4,5.1-1.7,7.2c-2.1,3.5-6.7,4.5-10.7,5.4c-4,0.9-8.6,2.7-9.6,6.7
		c-0.5,1.7-0.2,3.5,0.2,5.2c0.9,4.4,2.1,8.8,3.7,13c0.4,0.9,0.8,2,1.7,2.4c0.8,0.4,1.8,0.2,2.6,0c5.2-1.1,11.2-2.9,13.2-7.9
		c0.8-2,0.8-4.2,1.6-6.2c2.2-5.4,9.4-7,12.8-11.7c1.9-2.6,2.4-6,4-8.8c4-7.1,20-20.3,4.9-26.2
		C1803.2,1280.3,1793.6,1296.8,1792.3,1306z"/>
	<path class="st2" d="M1857.7,1245.1c-7.5,1.2-13.4,8.6-13,16.2c0.2,3.8,2.5,8,6.3,8.4c5,0.6,8.2-5.6,8.2-10.6
		c-0.1-5.2-2-10.4-5.3-14.4"/>
	<path class="st2" d="M1889.5,1218.2c-3.6,2.1-7,4.8-8.5,8.6c-1.5,3.8-0.2,8.9,3.5,10.6c6.7-2.8,8.9-12.9,4-18.3"/>
	<path class="st2" d="M1593.3,899.3c0.6,2.8,4.2,5,6.4,3.2c-6.9,7.7-8.6,19.5-4.1,28.8c8.7,4.6,16.5,11.1,22.7,18.7
		c2,2.4,3.9,5.3,3.7,8.4c-0.4,5.1-5.8,7.9-10.2,10.4c-4.4,2.6-8.7,8-5.9,12.2c5.4,5.6,14.7,3.9,22,1.1c7.3-2.8,15.4-6.5,22.5-3.4
		c2.9,1.2,5.3,3.4,7.7,5.5c23,19.5,56,26.6,85,18.1c-1.2-6.9-11.2-6.2-17.3-9.5c-8.6-4.6-9.7-17.9-18.6-21.7
		c-2.7-1.2-5.7-1.2-8.5-1.9c-4.2-1-7.8-3.4-11.4-5.7c-8.8-5.6-17.5-11.2-26.3-16.8c-4.9-3.2-10-6.5-13.2-11.4
		c-3.2-5-4.2-11-6.1-16.6c-1.9-5.6-5.6-11.3-11.3-12.7c-2.2-0.5-4.5-0.4-6.6-1c-11.2-3.3-6.9-18.7-14.9-23.5
		C1600.6,876.5,1591.6,891.7,1593.3,899.3z"/>
	<path class="st2" d="M2008,654.5c-4.8,8,1.1,18,6.8,25.5c1.7,2.2,3.4,4.4,5.9,5.6c2,1,4.3,1.1,6.4,1.5c7.7,1.4,14.7,6,19,12.5
		c0.9,1.3,1.7,2.7,3.2,3.3c1.2,0.5,2.6,0.2,3.9-0.1c6.7-1.6,13.3-3.6,19.8-5.6c2.3-0.7,4.7-1.4,7-2.1c5.6-1.7,11.3-3.5,16-6.9
		c4.7-3.5,8.3-9,7.8-14.9c-0.7-8-8.6-14.6-7.1-22.5c2.7-15,1.6-21.1-11.7-31.1c-8.6-6.5-19.4-12.4-30.5-10.2
		C2034.8,613.7,2017.3,638.9,2008,654.5z"/>
	<path class="st2" d="M2698,226.9c-34.6-32.5-87-44.7-132.4-30.9c-0.8,25.6,11.6,49.4,19.3,73.8c7.7,24.4,9.6,54.2-8.2,72.6
		c-11.8,12.2-29.4,16.3-45.9,19.8c-53.7,11.5-107.5,23.1-161.2,34.6c-27.3,5.9-55.5,11.7-82.8,6c-30.1-6.3-55.3-26-82.4-40.4
		c-27.1-14.4-61.1-23.6-87.8-8.5c-41.7-6.6-78-39.6-88.5-80.5c-24.9,3.2-49.7,6.5-74.6,9.7c-9.4-7.4-18.8-14.8-28.2-22.1
		c-9.8,9-19.6,17.9-29.4,26.9c-13.2-17.3-46.9,4.9-36.3,23.8c-21.7-2.2-43.4-4.5-65.1-6.7c-11.9,29-50.3,33.6-81.6,33.7
		c-37.7,0.1-75.4,0.3-113.1,0.4c-50.1,30.8-112.5,40.8-169.7,27.2c-9.3,27.9-18.6,55.8-27.9,83.7c-14.7-19.9-53.1-9.6-55.8,15
		c-40-2.1-79.7-10.9-116.9-26c-13.4,15.6-37.6,12.6-57.9,16.2c-67.6,11.9-99.8,103.1-167.8,112.4c-6.1-8-12.2-15.9-18.4-23.9
		c-61,29.1-132,36.7-197.7,21c-9.6,32.6,9.5,65.7,18.4,98.5c8.9,32.8-2.2,79.1-36.1,80.9c-7.4,0.4-15.2-1.5-21.8,1.8
		c-7.3,3.7-10.4,12.3-12.8,20.1c-12.5,40.8-25,81.6-37.4,122.4c-5.6,18.2-14.5,39.5-33.2,42.6c-16.3,2.7-32.6-10.4-48.7-6.5
		c-21.1,5.1-36.1,37.6-55.4,27.5c3.9,30.3,18.6,59,40.9,79.8c-5.7,7.3-11.5,14.7-17.2,22c-11.5-3.3-23-6.5-34.5-9.8
		c3.7,11.4,7.4,23.7,3.6,35.1c-3.8,11.3-18.9,19.4-28.2,11.9c0,12.6-11.5,24.2-24.1,24.2c13.5,12,10.7,37.2,6.1,54.7
		c19.8,2,37.3,18.4,40.5,38c-8.4,3.7-16.8,7.4-25.2,11c8.8,17.7,18,36,33,48.8c15.1,12.8,37.7,18.9,54.9,9.2
		c-3.9,31.3,30.5,51.4,53.5,73c29.8,28,44.5,71.2,38.1,111.6c-2.4,15-5.2,35,8.7,41.3c5.9-5.1,11.8-10.3,17.7-15.4
		c39.8,36.5,68.9,84.5,82.8,136.6c1.5-7.1,3-14.1,4.5-21.2c4.8,34.2,9.6,68.5,14.4,102.7c20.7-4.9,42.7-4.8,63.3,0.4
		c-1-10.9-5.9-21.5-13.7-29.3c22.9-7.5,22.7-39.5,18-63.1c22.4,32.7,44.9,65.3,67.3,98c17.2-10.5,34.5-21.1,51.7-31.6
		c14,9,32.1,2.2,48-2.7c64.9-20,134.8-2.5,200.4,15c-11.3-10.9-3.5-32.7,11.5-37.5s31.7,4.2,40.1,17.5c8.4,13.3,9.9,29.7,9.6,45.4
		c11.9-15,23.9-30,35.8-45c15.7,23.8,31.5,47.6,47.2,71.4c29.9-4.1,60.5-8.1,90.1-2c29.6,6.1,58.4,24.5,68.6,53
		c-45.7,5.3-91.4,10.7-137.1,16c12.3,9,25.4,19,30,33.5c4.6,14.6-4.8,34.1-20,33.6c-47.7-52.8-112.8-89.8-182.6-103.8
		c-12.6-2.5-25.4-4.3-37.3-9.1c-25.4-10-43.7-31.9-64.7-49.3c-21-17.4-49.7-31.1-75-20.9c-35.8,14.5-51.7,71.3-90,66.3
		c-14.1-1.8-26-12.7-40.2-13.9c-24.2-2.2-41.4,23.2-48.7,46.3s-11.8,49.9-31.4,64.1c-15.5,11.2-40.2,15.2-43.6,34
		c-3.1,16.9,14.5,29.4,28.5,39.5c16.1,11.6,30.1,25.8,44,40c7.4,7.5,14.8,15,22.2,22.6c38.8,39.5,78,79.3,107.9,125.9
		c5,7.8,10,16.8,8,25.9c-3.2,15.3-22.2,20.1-34.5,29.8c-28.2,22.4-17,67-3.3,100.3c15.3,37,30.5,74.1,45.8,111.1
		c8.7-7.4,17.5-14.7,26.2-22.1c3.3,13.4,9.4,29.5,23.1,31.1c13.8,1.7,24.1-13.7,24.7-27.6c0.6-13.9-4.7-27.3-5.2-41.2
		c-1-34.3,34.2-64.9,68-59.1c-4.7,23.5,3.7,49.2,21.4,65.3c28.4,34.9,50.7,74.8,65.6,117.2c5.9,16.8,4.9,42.9-12.8,43.8
		c11.6,21,27.4,39.7,46.3,54.6c-3.3-32.3-1.9-65.1,4-97.1c4.7-25.4,13.1-51.6,32.4-68.8c19.3-17.1,52.2-21.1,70-2.4
		c21,41.7,42.1,83.5,63.1,125.2c5.9-3.9,11.8-7.9,17.6-11.8c8.7,9.3,15.2,20.7,18.6,33c14.7,1.3,29.4,2.6,44,3.9
		c-5.1-27-26.5-47.4-42.6-69.7c-16.2-22.3-27.4-53.9-11.3-76.3c5.3-7,10.6-13.9,15.9-20.9c-30.1-66.4-54.7-135.3-73.5-205.7
		c-5.9-22.3-11.5-45.1-23.4-64.8c-15.8-26.1-43.6-53.9-30.9-81.7c44.1,26.9,88.1,53.8,132.2,80.7c-9.2,20.9-2.1,47.7,16.3,61.4
		c29.5-38,76.5-61.8,124.7-63c-10.2-6.2-11-23.2-1.4-30.3c-2.7-7.5-8-14.1-14.8-18.3c-14.1,12-37.7,10.4-50-3.5
		c-7.5,6.3-15,12.7-22.6,19c-27.9,0-41-34.9-41.6-62.9c-0.6-27.9,1.2-60.9-20.9-78c-10.4-8.1-27.2-18.9-19.2-29.5
		c61.7-23.1,123.3-46.3,185-69.4c12.6,11.9,15.3,32.8,6.2,47.6c19.5-10.6,41.6,8.7,54.1,27c12.5,18.4,28.7,40.5,50.7,37.2
		c-0.6,30.6,25.9,59.2,56.4,60.9c8.3-42.1,5.4-86.2-8.1-126.9c-8.6-25.8-20.8-56.7-3.7-77.9c4.2-5.2,10-9.5,12-15.9
		c2.6-8.3-2.4-17.1-8-23.8c-37.8-45.1-110.1-52.9-141.3-102.9c-4.6-7.5-8.5-16-16-20.6c-7-4.3-15.8-4.2-24-4
		c-16.3,0.3-33.4,0-47.7-7.9c-14.2-7.9-24.2-26.1-17.5-40.9c-14.1-8.1-28.2-16.2-42.3-24.3c1.7,15.7-25.1,17.2-34.9,4.8
		c-9.8-12.4-11.4-30.1-22.3-41.6c-8.7-9.2-21.7-12.6-34.1-15.7c-30.7-7.6-61.3-15.1-92-22.7c-18.4-4.5-41.9-20.7-31.3-36.4
		c26.5,7.4,54.4,9.3,81.7,5.7c18.9-2.5,38.6-8.4,51-22.9c12.3-14.5,13.4-39.7-2-50.9c-6.9-29.4-26.3-55.6-52.3-70.8
		c12.9-14,25.9-28,38.8-41.9c8.2-8.9,18.6-18.6,30.5-16.7c6.6,1,12.2,5.5,17.3,9.8c14.7,12.2,29.4,24.4,44.1,36.7
		c8.6,7.2,18.2,16.8,15.9,27.8c-5,23.9-53.8,15.4-55.9,39.7c31.3-3.7,62.1-11.1,91.5-22.2c5.5-2.1,11.6-4.8,13.6-10.4
		s7.4-11.3,2.5-8.1c-37.1-17.8-40-69.8-65.8-101.9c-27.9-34.7-82.8-46.2-97.4-88.2c-10.2-29.2,0.4-69.6-25.9-85.7
		c-6.7-4.1-15.1-5.8-20.1-11.8c-4.9-5.8-5.4-14-7.1-21.4c-5.5-23-24.6-39.8-38.1-59.2c-28.6-40.9-32.2-98-8.8-142.1
		c6.7-12.7,14.6-30.3,3.4-39.2c-3-2.4-7.3-3.8-8.7-7.3c-2.1-5,2.8-10,7.2-13.2c10.8-7.8,22.2-14.7,34.1-20.7
		c-3.9-6.8-7.9-13.5-11.8-20.3c32.8-1,65.1-15.2,88-38.7c11.3,14.9,22.8,35.8,11.5,50.7c-10.4,13.7-35.8,13.9-39.7,30.7
		c-2.7,11.7,7.7,22,17.3,29.1c47,35.1,99.8,62.6,155.5,81c-0.6-11.2,10.3-20.4,21.4-22.1c11.1-1.7,22.2,2.1,32.8,5.8
		c35.3,12.4,73.5,27.2,92.1,59.6c5.9,10.3,9.5,21.9,15.2,32.4c10,18.3,26.7,32.8,46.3,40.1c19.1-8.1,24.8-34.2,17-53.5
		c-7.8-19.2-25.1-32.7-42.3-44.3c-17.2-11.6-35.5-22.7-47.4-39.7c-5.2-7.4-9.1-17.2-5.2-25.5c5-10.7,19.4-12.5,31.2-11.8
		c57.7,3.3,113.9,28.8,154.4,70c17.3,17.6,40.3,39.9,62.3,28.9c-20.3-39-53.2-71.3-92.4-91c-20.2-10.2-44.5-19.5-51.8-41
		c-19.6,15.2-49.3,15.7-69.4,1c-4.4-18.9,8.5-40.1,27.2-44.9c-26.8-14.5-49.2-37.1-63.3-64.2c5.4-21.3,14-46.1,35.3-52
		c20.1-5.5,39.3,9.2,58.1,18.1c32,15.2,73.9,12.3,98.9-12.9c15.4-15.5,22.8-37.1,35.2-55c12.4-18,34.4-33.3,55-26
		c18.7,6.6,27.3,28.4,43.7,39.5c27.1,18.3,63.4,2.1,91.8-14.3c26.2-15.1,52.3-30.1,78.5-45.2c-4.5,14.2,11.2,27.3,26,29.2
		s29.9-2.5,44.5,0.3c12.1,2.3,22.6,9.3,33.3,15.3c52,29.6,108.9,32.3,167.8,22c15.3,17.2,30.6,34.4,46,51.6
		c80.1-33.3,121.5-138,85.8-217.1c34.1-20.2,70.4-36.6,108.1-48.9C2748.2,310.8,2732.7,259.4,2698,226.9z M839.7,1438.4
		c-3.9,4.5-9.5,7.8-11.6,13.3c-1.2,3.2-1.2,7-3.3,9.8c-4.7,6.2-15.1,1.3-18.8-5.6c-22.8-42.6-40.9-8.5-76.2-24.1
		c-24.2-10.7-24.2-42.8-16.3-64.5c3,2.1,40.5,31.1,38.8,11.5c0.7,7.4,4.4,14.5,10,19.3c15.6,4.3,32.3,4.6,48,0.8
		c1.7-5.6,3.6-11.3,7.6-15.6c4-4.2,10.9-6.4,15.8-3.3c3.8,2.4,5.4,6.9,6.8,11.1C845.8,1406.8,850.4,1425.8,839.7,1438.4z"/>
	<path class="st2" d="M397.8,1087.2c-7.8,2.7-14.9,9.4-15.4,17.6c10.5,9.5,20.3,19.7,29.5,30.4c2.1,29,14.7,57.1,35,77.8
		c4.8-7.3,16.5-6.9,23.3-1.3c6.8,5.5,9.9,14.3,12.8,22.6c-28.3-9.3-56.7-18.4-85.2-27.3c1.3-13.3-4-26.3-9.2-38.6
		c-5.3-12.5-11.1-25.8-22.6-33.1c-3.9-2.5-8.3-4.2-11.8-7.3c-7.4-6.7-8.7-18.7-16.8-24.4c-4-2.8-9.2-3.7-12.6-7.3
		c-5.3-5.6-3.3-14.6-1-22c3.3-10.4,9.1-22.9,20.1-23c30.9-0.3,78.7-12.8,77.4,33.3C413.9,1085,405,1084.8,397.8,1087.2z"/>
	<path class="st2" d="M481.1,1289.6c2,9.6,4,19.4,9.1,27.9c5.1,8.4,13.8,15.3,23.6,15.4c1.3-19.1-9.9-38.5-27.2-46.8"/>
	<path class="st2" d="M632.9,1595.9c3.7-9.7,17.3-10,27.5-8.2c10.3,1.8,23.4,2.8,28.5-6.3c2.2-3.9,2.1-8.7,1.9-13.2
		c-1.1-26.7,11.4-106.8-29.2-81c-14.2,9-24,35.2-28.1,50.5C628.9,1554.6,638,1582.5,632.9,1595.9z"/>
	<path class="st2" d="M718.3,1915.2c-11.3-16.4-22.7-32.9-34-49.3c-16.1,7.5-28.2,23.1-31.5,40.5c-0.6,3.2-0.9,6.5,0,9.6
		c2.1,6.8,9.2,10.3,14.7,14.7c15.6,12.6,19.1,35.3,32.8,49.8c11.4,12.1,29.8,18.7,35.5,34.4c6.4,0,9-8.3,8.3-14.7
		s-2.6-13.6,1.4-18.5c5.4-6.7,16.1-3.3,23.4,1.1s16.7,9.4,23.8,4.7c4.3-8.6-2.6-18.8-10.4-24.4s-17.5-9.6-22.4-17.9
		c-2.9-4.9-3.8-10.7-6.8-15.5c-9.6-15.2-36.1-14-42.9-30.7"/>
	<path class="st2" d="M576.4,1719.5c20.7-2.9,36.3,21.5,34.2,42.3c-1,9.3-4.2,18.5-3.5,27.8c0.8,9.3,7.6,19.3,17,18.8
		c2.8-0.2,5.4-1.2,8.1-2.1c26.8-8.6,55.4,3.8,80.9,15.8c6.6-21.2-3.2-43.6-12.7-63.6c-2.4-5-4.9-10.1-9.3-13.5
		c-10.8-8.3-31.2-5.4-34.3-18.6c-0.8-3.2,0-6.6,0.5-9.9c3.7-22.7-2-51-19.5-66.2c7.2,6.2-16.7,55.7-21.3,61.8
		c-20.5-19.2-42.7,20.4-46.6,38.2c-13.6,62.7,41.1-12.9,8.4-19.2"/>
	<path class="st2" d="M679.7,1633.7c-9.6,3.2-17,12.3-18.1,22.4c-0.9,8.3,3.3,17.8,11.3,20s17.5-7,13.5-14.3
		c-0.7-9.5-3.7-18.7-8.7-26.8"/>
	<path class="st2" d="M699.2,1686.3c-6.2-6.8-18.7,3.2-15.9,12c2.8,8.8,13.9,12.3,23,10.7c1.5-8.5,0.2-17.4-3.6-25.1"/>
</g>
<g id="Layer_5">
	<rect x="651.3" y="1050.9" class="st3" width="730" height="217"/>
	<text transform="matrix(1 0 0 1 679.5745 1230.553)" class="st4 st5 st6">GREECE</text>
</g>
<g id="Layer_6">
	<rect x="1679.2" y="1716.2" class="st7" width="644" height="186.9"/>
	<g>
		<g>
			<path d="M1709.9,1818.9c-0.2-9.9,7.9-17.6,17.6-17.6c9.7,0,17.6,7.7,17.6,17.5c0,9.9-7.7,17.6-17.6,17.6
				C1717.8,1836.4,1709.9,1828.8,1709.9,1818.9z"/>
			<path d="M1807,1827.2l-11.8,35.6h-15.1l38.5-113.2h17.6l38.6,113.2h-15.6l-12.1-35.6H1807z M1844.1,1815.7l-11.1-32.6
				c-2.5-7.4-4.2-14.1-5.9-20.7h-0.3c-1.7,6.7-3.5,13.6-5.7,20.5l-11.1,32.8H1844.1z"/>
			<path d="M1913.5,1758.1v23.4h21.2v11.3h-21.2v43.8c0,10.1,2.9,15.8,11.1,15.8c3.9,0,6.7-0.5,8.6-1l0.7,11.1
				c-2.9,1.2-7.4,2-13.1,2c-6.9,0-12.4-2.2-16-6.2c-4.2-4.4-5.7-11.6-5.7-21.2v-44.4h-12.6v-11.3h12.6V1762L1913.5,1758.1z"/>
			<path d="M1956,1743.5h14.8v50.7h0.3c2.4-4.2,6-7.9,10.6-10.4c4.4-2.5,9.6-4.2,15.1-4.2c10.9,0,28.4,6.7,28.4,34.8v48.4h-14.8
				v-46.7c0-13.1-4.9-24.2-18.8-24.2c-9.6,0-17.1,6.7-19.8,14.8c-0.8,2-1,4.2-1,7.1v49.1H1956V1743.5z"/>
			<path d="M2062.2,1824.8c0.3,20,13.1,28.2,27.9,28.2c10.6,0,17-1.8,22.5-4.2l2.5,10.6c-5.2,2.4-14.1,5-27,5c-25,0-40-16.5-40-41
				c0-24.5,14.4-43.8,38.1-43.8c26.5,0,33.6,23.4,33.6,38.3c0,3-0.3,5.4-0.5,6.9H2062.2z M2105.5,1814.2c0.2-9.4-3.9-24-20.5-24
				c-15,0-21.5,13.8-22.7,24H2105.5z"/>
			<path d="M2142.8,1803.5c0-8.4-0.2-15.3-0.7-22h13.1l0.8,13.4h0.3c4-7.7,13.4-15.3,26.9-15.3c11.3,0,28.7,6.7,28.7,34.6v48.6
				h-14.8v-46.9c0-13.1-4.9-24-18.8-24c-9.7,0-17.3,6.9-19.8,15.1c-0.7,1.8-1,4.4-1,6.9v48.9h-14.8V1803.5z"/>
			<path d="M2238.7,1847.6c4.4,2.9,12.1,5.9,19.5,5.9c10.8,0,15.8-5.4,15.8-12.1c0-7.1-4.2-10.9-15.1-15
				c-14.6-5.2-21.5-13.3-21.5-23c0-13.1,10.6-23.9,28.1-23.9c8.2,0,15.5,2.4,20,5l-3.7,10.8c-3.2-2-9.1-4.7-16.6-4.7
				c-8.7,0-13.6,5-13.6,11.1c0,6.7,4.9,9.7,15.5,13.8c14.1,5.4,21.3,12.4,21.3,24.5c0,14.3-11.1,24.4-30.4,24.4
				c-8.9,0-17.1-2.2-22.8-5.5L2238.7,1847.6z"/>
		</g>
	</g>
</g>
</svg>
