<?xml version="1.0" encoding="utf-8"?>
<!-- Generator: Adobe Illustrator 27.2.0, SVG Export Plug-In . SVG Version: 6.00 Build 0)  -->
<svg version="1.1" id="Layer_2" xmlns="http://www.w3.org/2000/svg" xmlns:xlink="http://www.w3.org/1999/xlink" x="0px" y="0px"
	 viewBox="0 0 849.8 310.3" style="enable-background:new 0 0 849.8 310.3;" xml:space="preserve">
<style type="text/css">
	.st0{fill:#17181B;}
	.st1{fill:url(#SVGID_1_);}
	.st2{fill:url(#SVGID_00000008127213249971696910000007701871583621471376_);}
	.st3{fill:#00E676;}
</style>
<g id="Layer_2">
	
		<image style="overflow:visible;opacity:0.9;" width="868" height="330" xlink:href="E345B07E.png" transform="matrix(1 0 0 1 -9 -7.68)"/>
	<g>
		<g>
			<path class="st0" d="M822.4,265c-0.2,0.1-0.4,0.1-0.6,0.1h-27c-1.1,0-2-0.9-2-2v-27c0-1.1,0.9-2,2-2h27c0.5,0,0.9,0.2,1.2,0.4
				c0,0,0,0,0.1,0c0-1.8,0-3.8-0.1-6c-0.1-5.2-0.1-10.5-0.2-15.7c-0.1-13.5-0.6-45.3-2-122.7c-0.3-7-0.6-14-0.9-21h-25.2
				c-1.1,0-2-0.9-2-2v-27c0-1.1,0.9-2,2-2h23.8c-0.4-8.4-0.7-14.6-0.9-20H25.9c-0.2,6.3-0.5,12.6-0.8,18.9
				c-0.4,10-0.9,19.9-1.3,29.8c-1.6,35.8-2.3,53.6-2.7,67.5c-0.2,6.9-0.5,24.1-1,58.2c-0.1,5.6-0.5,31.1-1.1,62.8
				c-0.2,12.3-0.4,21.5-0.7,29.9h807.2c-1-8.3-1.5-15.1-1.8-19.9C823.2,265.1,822.8,265.1,822.4,265z M61.7,263.1c0,1.1-0.9,2-2,2
				h-27c-1.1,0-2-0.9-2-2v-27c0-1.1,0.9-2,2-2h27c1.1,0,2,0.9,2,2V263.1z M61.7,67.1c0,1.1-0.9,2-2,2h-27c-1.1,0-2-0.9-2-2v-27
				c0-1.1,0.9-2,2-2h27c1.1,0,2,0.9,2,2V67.1z M112.7,263.1c0,1.1-0.9,2-2,2h-27c-1.1,0-2-0.9-2-2v-27c0-1.1,0.9-2,2-2h27
				c1.1,0,2,0.9,2,2V263.1z M112.7,67.1c0,1.1-0.9,2-2,2h-27c-1.1,0-2-0.9-2-2v-27c0-1.1,0.9-2,2-2h27c1.1,0,2,0.9,2,2V67.1z
				 M132.7,40.1c0-1.1,0.9-2,2-2h27c1.1,0,2,0.9,2,2v27c0,1.1-0.9,2-2,2h-27c-1.1,0-2-0.9-2-2V40.1z M163.7,263.1c0,1.1-0.9,2-2,2
				h-27c-1.1,0-2-0.9-2-2v-27c0-1.1,0.9-2,2-2h27c1.1,0,2,0.9,2,2V263.1z M183.7,40.1c0-1.1,0.9-2,2-2h27v31h-27c-1.1,0-2-0.9-2-2
				V40.1z M212.7,265.1h-27c-1.1,0-2-0.9-2-2v-27c0-1.1,0.9-2,2-2h27V265.1z M264.7,263.1c0,1.1-0.9,2-2,2h-27c-1.1,0-2-0.9-2-2v-27
				c0-1.1,0.9-2,2-2h27c1.1,0,2,0.9,2,2V263.1z M264.7,67.1c0,1.1-0.9,2-2,2h-27c-1.1,0-2-0.9-2-2v-27c0-1.1,0.9-2,2-2h27
				c1.1,0,2,0.9,2,2V67.1z M284.7,40.1c0-1.1,0.9-2,2-2h27c1.1,0,2,0.9,2,2v27c0,1.1-0.9,2-2,2h-27c-1.1,0-2-0.9-2-2V40.1z
				 M315.7,263.1c0,1.1-0.9,2-2,2h-27c-1.1,0-2-0.9-2-2v-27c0-1.1,0.9-2,2-2h27c1.1,0,2,0.9,2,2V263.1z M335.7,40.1c0-1.1,0.9-2,2-2
				h27c1.1,0,2,0.9,2,2v27c0,1.1-0.9,2-2,2h-27c-1.1,0-2-0.9-2-2V40.1z M366.7,263.1c0,1.1-0.9,2-2,2h-27c-1.1,0-2-0.9-2-2v-27
				c0-1.1,0.9-2,2-2h27c1.1,0,2,0.9,2,2V263.1z M386.7,40.1c0-1.1,0.9-2,2-2h27c1.1,0,2,0.9,2,2v27c0,1.1-0.9,2-2,2h-27
				c-1.1,0-2-0.9-2-2V40.1z M417.7,263.1c0,1.1-0.9,2-2,2h-27c-1.1,0-2-0.9-2-2v-27c0-1.1,0.9-2,2-2h27c1.1,0,2,0.9,2,2V263.1z
				 M467.7,263.1c0,1.1-0.9,2-2,2h-27c-1.1,0-2-0.9-2-2v-27c0-1.1,0.9-2,2-2h27c1.1,0,2,0.9,2,2V263.1z M467.7,67.1c0,1.1-0.9,2-2,2
				h-27c-1.1,0-2-0.9-2-2v-27c0-1.1,0.9-2,2-2h27c1.1,0,2,0.9,2,2V67.1z M518.7,263.1c0,1.1-0.9,2-2,2h-27c-1.1,0-2-0.9-2-2v-27
				c0-1.1,0.9-2,2-2h27c1.1,0,2,0.9,2,2V263.1z M518.7,67.1c0,1.1-0.9,2-2,2h-27c-1.1,0-2-0.9-2-2v-27c0-1.1,0.9-2,2-2h27
				c1.1,0,2,0.9,2,2V67.1z M569.7,263.1c0,1.1-0.9,2-2,2h-27c-1.1,0-2-0.9-2-2v-27c0-1.1,0.9-2,2-2h27c1.1,0,2,0.9,2,2V263.1z
				 M569.7,67.1c0,1.1-0.9,2-2,2h-27c-1.1,0-2-0.9-2-2v-27c0-1.1,0.9-2,2-2h27c1.1,0,2,0.9,2,2V67.1z M620.7,263.1c0,1.1-0.9,2-2,2
				h-27c-1.1,0-2-0.9-2-2v-27c0-1.1,0.9-2,2-2h27c1.1,0,2,0.9,2,2V263.1z M620.7,67.1c0,1.1-0.9,2-2,2h-27c-1.1,0-2-0.9-2-2v-27
				c0-1.1,0.9-2,2-2h27c1.1,0,2,0.9,2,2V67.1z M641.7,38.1h27c1.1,0,2,0.9,2,2v27c0,1.1-0.9,2-2,2h-27V38.1z M670.7,263.1
				c0,1.1-0.9,2-2,2h-27v-31h27c1.1,0,2,0.9,2,2V263.1z M690.7,40.1c0-1.1,0.9-2,2-2h27c1.1,0,2,0.9,2,2v27c0,1.1-0.9,2-2,2h-27
				c-1.1,0-2-0.9-2-2V40.1z M721.7,263.1c0,1.1-0.9,2-2,2h-27c-1.1,0-2-0.9-2-2v-27c0-1.1,0.9-2,2-2h27c1.1,0,2,0.9,2,2V263.1z
				 M741.7,40.1c0-1.1,0.9-2,2-2h27c1.1,0,2,0.9,2,2v27c0,1.1-0.9,2-2,2h-27c-1.1,0-2-0.9-2-2V40.1z M772.7,263.1c0,1.1-0.9,2-2,2
				h-27c-1.1,0-2-0.9-2-2v-27c0-1.1,0.9-2,2-2h27c1.1,0,2,0.9,2,2V263.1z"/>
			
				<linearGradient id="SVGID_1_" gradientUnits="userSpaceOnUse" x1="422.185" y1="294.9" x2="422.185" y2="27.9" gradientTransform="matrix(1 0 0 -1 0 312)">
				<stop  offset="0" style="stop-color:#FFFFFF;stop-opacity:0.5"/>
				<stop  offset="0.5" style="stop-color:#FFFFFF;stop-opacity:0.2"/>
				<stop  offset="1" style="stop-color:#000000;stop-opacity:0"/>
			</linearGradient>
			<path class="st1" d="M824.8,265.2c-1.5,0-2.8-0.2-3.9-0.7l-25.8-0.5l-1.4-0.6c-0.2-9.5-0.4-18.9-0.6-28.4c0-1.1,0.9-2,2-2h27
				c0,0.5,0.1,1,0.1,1.5c0.5-0.1,1.1-0.1,1.6-0.1c0.1,0,0.3,0,0.4-0.1c-0.2-8.4-0.3-16.3-0.4-23.3c-0.3,0.6-1,1-1.7,1
				c0.9-43.4,0.5-87.7-1.3-132.8c-0.2-3.7-0.3-7.5-0.5-11.2h-25.2c-1.1,0-2-0.9-2-2v-27c0-1.1,0.9-2,2-2h23.8
				c-0.4-8.4-0.7-14.6-0.9-20H26.2c-0.4,12.2-0.9,21.9-2.1,48.6c-1.6,35.8-2.3,53.6-2.7,67.5c-0.2,6.9-0.5,24.1-1,58.2
				c-0.1,5.6-0.5,31.1-1.1,62.8c-0.2,12.3-0.4,21.5-0.7,29.9h807.2c-0.4-6.2-0.6-12.2-0.8-18.9C824.9,265.2,824.9,265.2,824.8,265.2
				z M62.1,262.1c0,1.1-0.9,2-2,2h-27c-1.1,0-2-0.9-2-2v-27c0-1.1,0.9-2,2-2h27c1.1,0,2,0.9,2,2V262.1z M62.1,66.1c0,1.1-0.9,2-2,2
				h-27c-1.1,0-2-0.9-2-2v-27c0-1.1,0.9-2,2-2h27c1.1,0,2,0.9,2,2V66.1z M82.1,39.1c0-1.1,0.9-2,2-2h27c1.1,0,2,0.9,2,2v27
				c0,1.1-0.9,2-2,2h-27c-1.1,0-2-0.9-2-2V39.1z M113.1,262.1c0,1.1-0.9,2-2,2h-27c-1.1,0-2-0.9-2-2v-27c0-1.1,0.9-2,2-2h27
				c1.1,0,2,0.9,2,2V262.1z M133.1,39.1c0-1.1,0.9-2,2-2h27c1.1,0,2,0.9,2,2v27c0,1.1-0.9,2-2,2h-27c-1.1,0-2-0.9-2-2V39.1z
				 M164.1,262.1c0,1.1-0.9,2-2,2h-27c-1.1,0-2-0.9-2-2v-27c0-1.1,0.9-2,2-2h27c1.1,0,2,0.9,2,2V262.1z M184.1,39.1c0-1.1,0.9-2,2-2
				h27v31h-27c-1.1,0-2-0.9-2-2V39.1z M213.1,264.1h-27c-1.1,0-2-0.9-2-2v-27c0-1.1,0.9-2,2-2h27V264.1z M265.1,262.1
				c0,1.1-0.9,2-2,2h-27c-1.1,0-2-0.9-2-2v-27c0-1.1,0.9-2,2-2h27c1.1,0,2,0.9,2,2V262.1z M265.1,66.1c0,1.1-0.9,2-2,2h-27
				c-1.1,0-2-0.9-2-2v-27c0-1.1,0.9-2,2-2h27c1.1,0,2,0.9,2,2V66.1z M285.1,39.1c0-1.1,0.9-2,2-2h27c1.1,0,2,0.9,2,2v27
				c0,1.1-0.9,2-2,2h-27c-1.1,0-2-0.9-2-2V39.1z M316.1,262.1c0,1.1-0.9,2-2,2h-27c-1.1,0-2-0.9-2-2v-27c0-1.1,0.9-2,2-2h27
				c1.1,0,2,0.9,2,2V262.1z M336.1,39.1c0-1.1,0.9-2,2-2h27c1.1,0,2,0.9,2,2v27c0,1.1-0.9,2-2,2h-27c-1.1,0-2-0.9-2-2V39.1z
				 M367.1,262.1c0,1.1-0.9,2-2,2h-27c-1.1,0-2-0.9-2-2v-27c0-1.1,0.9-2,2-2h27c1.1,0,2,0.9,2,2V262.1z M387.1,39.1c0-1.1,0.9-2,2-2
				h27c1.1,0,2,0.9,2,2v27c0,1.1-0.9,2-2,2h-27c-1.1,0-2-0.9-2-2V39.1z M418.1,262.1c0,1.1-0.9,2-2,2h-27c-1.1,0-2-0.9-2-2v-27
				c0-1.1,0.9-2,2-2h27c1.1,0,2,0.9,2,2V262.1z M468.1,262.1c0,1.1-0.9,2-2,2h-27c-1.1,0-2-0.9-2-2v-27c0-1.1,0.9-2,2-2h27
				c1.1,0,2,0.9,2,2V262.1z M468.1,66.1c0,1.1-0.9,2-2,2h-27c-1.1,0-2-0.9-2-2v-27c0-1.1,0.9-2,2-2h27c1.1,0,2,0.9,2,2V66.1z
				 M519.1,262.1c0,1.1-0.9,2-2,2h-27c-1.1,0-2-0.9-2-2v-27c0-1.1,0.9-2,2-2h27c1.1,0,2,0.9,2,2V262.1z M519.1,66.1c0,1.1-0.9,2-2,2
				h-27c-1.1,0-2-0.9-2-2v-27c0-1.1,0.9-2,2-2h27c1.1,0,2,0.9,2,2V66.1z M570.1,262.1c0,1.1-0.9,2-2,2h-27c-1.1,0-2-0.9-2-2v-27
				c0-1.1,0.9-2,2-2h27c1.1,0,2,0.9,2,2V262.1z M570.1,66.1c0,1.1-0.9,2-2,2h-27c-1.1,0-2-0.9-2-2v-27c0-1.1,0.9-2,2-2h27
				c1.1,0,2,0.9,2,2V66.1z M621.1,262.1c0,1.1-0.9,2-2,2h-27c-1.1,0-2-0.9-2-2v-27c0-1.1,0.9-2,2-2h27c1.1,0,2,0.9,2,2V262.1z
				 M621.1,66.1c0,1.1-0.9,2-2,2h-27c-1.1,0-2-0.9-2-2v-27c0-1.1,0.9-2,2-2h27c1.1,0,2,0.9,2,2V66.1z M671.1,262.1c0,1.1-0.9,2-2,2
				h-27v-31h27c1.1,0,2,0.9,2,2V262.1z M671.1,66.1c0,1.1-0.9,2-2,2h-27v-31h27c1.1,0,2,0.9,2,2V66.1z M722.1,262.1c0,1.1-0.9,2-2,2
				h-27c-1.1,0-2-0.9-2-2v-27c0-1.1,0.9-2,2-2h27c1.1,0,2,0.9,2,2V262.1z M722.1,66.1c0,1.1-0.9,2-2,2h-27c-1.1,0-2-0.9-2-2v-27
				c0-1.1,0.9-2,2-2h27c1.1,0,2,0.9,2,2V66.1z M773.1,262.1c0,1.1-0.9,2-2,2h-27c-1.1,0-2-0.9-2-2v-27c0-1.1,0.9-2,2-2h27
				c1.1,0,2,0.9,2,2V262.1z M773.1,66.1c0,1.1-0.9,2-2,2h-27c-1.1,0-2-0.9-2-2v-27c0-1.1,0.9-2,2-2h27c1.1,0,2,0.9,2,2V66.1z"/>
			
				<linearGradient id="SVGID_00000101817697132926436080000008090140555871783338_" gradientUnits="userSpaceOnUse" x1="411.9264" y1="152.0886" x2="562.0989" y2="152.0886" gradientTransform="matrix(0.9744 0.225 -0.225 0.9744 45.3278 -105.9393)">
				<stop  offset="1.206080e-02" style="stop-color:#FFFFFF;stop-opacity:0"/>
				<stop  offset="0.5347" style="stop-color:#FFFFFF;stop-opacity:0.6"/>
				<stop  offset="1" style="stop-color:#FFFFFF;stop-opacity:0"/>
			</linearGradient>
			<path style="fill:url(#SVGID_00000101817697132926436080000008090140555871783338_);" d="M439.4,18.4c-19,89-38.1,178-57.1,266.9
				h149.6c2.3-11.2,4.6-22.4,6.9-33.6c0.1-8.7,0.2-15.1,0.3-16.3c0-0.3,0.1-0.7,0.4-1c0.2-0.2,0.5-0.3,1.7-0.4
				c0.5-0.1,0.9-0.1,1.2-0.1c14.8-72,29.7-144.1,44.5-216.1C537.8,18,488.6,18.2,439.4,18.4z M417,264.5c0,0-0.3,0.3-0.8,0.4
				c-1.2,0.4-25.4,0.2-28.1,0.2c-0.2-0.1-0.5-0.2-0.8-0.5c-0.3-0.3-0.5-0.7-0.5-0.9c2.1-9.8,4.2-19.7,6.3-29.5
				c12.8,0.1,21.8,0.2,22.9,0.1c0.1,0,0.7-0.1,1.1,0.3c0.4,0.3,0.5,0.9,0.5,1.1c0.1,1.1,0.1,12.4,0,27.7
				C417.6,263.7,417.4,264.1,417,264.5z M439.1,265.1c-0.3,0-0.8,0-1.4-0.3c-0.5-0.3-0.8-0.6-0.9-0.9c0-1.6-0.3-27,0.1-28.4
				c0.2-0.7,0.6-1,0.6-1c0.3-0.3,0.7-0.3,0.9-0.3c15.1,0.1,25.9,0.2,27.4,0.1c0.2,0,1-0.1,1.5,0.4c0.4,0.4,0.5,1,0.5,1.4
				c0.1,1.4,0,11.8-0.1,26c0.1,0.7,0.2,1.7-0.4,2.4c-0.4,0.5-1,0.6-1.2,0.6C463.8,265.4,441,265.1,439.1,265.1z M467.5,67.6
				c0,0-0.3,0.3-0.8,0.3c-0.7,0.1-12.2,0.1-28,0.1c-0.2,0-0.6-0.1-1-0.5c-0.2-0.2-0.3-0.4-0.4-0.6c-0.1-4.4-0.5-26.9-0.2-27.8
				c0.1-0.4,0.3-0.6,0.3-0.6c0.3-0.3,0.7-0.4,1-0.4c2.5,0,26.8-0.2,28,0.2c0.5,0.2,0.8,0.6,0.8,0.6c0.3,0.3,0.3,0.7,0.3,1
				c0,3.5,0.2,26.2,0.1,27.1C467.7,67.4,467.5,67.6,467.5,67.6z M488.6,38.6c0.2-0.2,0.5-0.3,0.8-0.3c2.1,0,26.6-0.3,28,0
				c0.5,0.1,0.9,0.5,0.9,0.5c0.4,0.3,0.5,0.8,0.6,1.1c0,2.9,0.1,27-0.3,27.6c-0.2,0.3-0.4,0.4-0.4,0.4c-0.2,0.1-0.4,0.2-0.6,0.2
				c-2.1,0-27.2,0.3-28.1-0.1c-0.3-0.2-0.6-0.4-0.6-0.4c-0.3-0.3-0.5-0.6-0.6-0.9c0-4.1-0.2-26.6,0-27.5
				C488.4,38.8,488.6,38.6,488.6,38.6z M488.1,264.3c-0.5-0.6-0.6-1.2-0.5-1.4c0-15.1,0.2-26.3,0.4-27.2c0.1-0.6,0.5-1,0.5-1
				c0.3-0.3,0.7-0.5,1-0.5c9.2-0.1,18.4-0.1,27.6-0.2c0.2,0,0.7,0.2,1.2,0.7c0.4,0.5,0.5,1,0.5,1.2c0,15.3,0,26.5,0,27.3
				c0,0.3-0.1,0.6-0.3,0.9c0,0-0.3,0.5-0.9,0.8c-1.2,0.6-26.7,0-28.2,0C489.4,264.9,488.7,264.9,488.1,264.3z M539.5,67.3
				c-0.1-0.2-0.3-0.3-0.4-0.4c0-9.1,0-18.3,0.1-27.4c0.1-0.2,0.2-0.5,0.5-0.8c0,0,0.3-0.3,0.8-0.5c0.7-0.3,12.2-0.2,27.8,0.1
				c0.1,0,0.5,0.1,0.8,0.3c0.4,0.4,0.4,0.9,0.4,1c0,1.8,0.2,26.2,0.1,27.3c-0.1,0.5-0.3,0.8-0.3,0.8s-0.3,0.3-0.8,0.4
				c-1.1,0.3-25.5,0-28.1,0C540.1,67.9,539.8,67.6,539.5,67.3z"/>
			<path class="st3" d="M211.8,213.7h-180c-0.6,0-1-0.4-1-1V91.2c0-0.6,0.4-1,1-1h180c0.6,0,1,0.4,1,1v121.5
				C212.8,213.2,212.4,213.7,211.8,213.7z"/>
			<path class="st3" d="M417.1,213.8h-182c-0.6,0-1-0.4-1-1V91.3c0-0.6,0.4-1,1-1h182c0.6,0,1,0.4,1,1v121.5
				C418.1,213.4,417.7,213.8,417.1,213.8z"/>
			<path class="st3" d="M619.6,214h-182c-0.6,0-1-0.4-1-1V91.5c0-0.6,0.4-1,1-1h182c0.6,0,1,0.4,1,1V213
				C620.6,213.6,620.2,214,619.6,214z"/>
			<path class="st3" d="M822.8,213c-60.1,0-120.2,0-180.4,0c-0.6,0-1-0.4-1-1V90.5c0.3-0.3,0.7-0.7,1-1c59.3,0.1,118.7,0.2,178,0.3
				C821.2,130.9,822,171.9,822.8,213z"/>
		</g>
	</g>
</g>
</svg>
