<?xml version="1.0" encoding="UTF-8"?>
<svg id="Layer_2" data-name="Layer 2" xmlns="http://www.w3.org/2000/svg" viewBox="0 0 23.63 23.45">
  <defs>
    <style>
      .cls-1 {
        fill: none;
        stroke: #142013;
        stroke-miterlimit: 10;
      }
    </style>
  </defs>
  <path class="cls-1" d="m19.54,22.94c-.21-.13-.52-.33-.89-.61,0,0-.46-.35-.89-.77-2.31-2.24-5.35-6.73-5.35-6.73-1.65-2.43-1.52-1.76-4.45-5.64-1.86-2.47-2.79-3.7-2.91-3.92,0,0-.8-1.45-3.2-4.24-.1-.12-.34-.39-.69-.41-.17-.01-.31.04-.39.07.32.43.65.86.98,1.29.43.56.8,1.07.97,1.3.81,1.1,1.27,1.82,1.88,2.73.61.9,1.14,1.62,2.2,3.07,2.09,2.85,2.39,3.02,4.18,5.43.02.03,2.65,3.57,5.14,6.49.5.59,1.51,1.75,2.94,1.91.23.03.58.05,1.27.02.56-.03,1.37-.06,2.38-.07-.36-.56-.9-1.39-1.59-2.38-1.31-1.89-2.13-2.88-3.52-4.69-.83-1.08-3.58-4.62-5.72-7.71-.72-1.04-1.13-1.61-1.96-2.75-1.64-2.28-.8-1.02-1.56-2.09-.83-1.16-1.63-2.37-2.61-2.59-.05-.01-.27-.06-.54-.09-.16-.02-.31-.04-.45-.04-.28-.02-.53-.02-.7-.01-.11,0-.19,0-.22,0-.26.01-1.03.05-2.82.12"/>
  <path class="cls-1" d="m14.01,6.64c-.62.69-1.14,1.24-1.48,1.59.12.2.25.41.37.63.12.22.23.43.34.63.63-.63,1.15-1.18,1.54-1.59.64-.68.97-1.03,1.38-1.51.59-.69.52-.68,1.06-1.32.45-.53.42-.44,1.56-1.69.48-.53.72-.79.98-1.09.26-.3.4-.46.64-.72.33-.36.61-.64.79-.82-.47,0-.94.02-1.4.03-.23.03-.46.05-.69.08-.98,1-1.74,1.85-2.25,2.44-1.08,1.25-1.59,1.97-2.83,3.35Z"/>
  <path class="cls-1" d="m3.44,19.82c-.17.2-.63.74-1.22,1.48-.44.56-.78,1.03-1,1.34.36-.01.72-.03,1.08-.04h.87c1.32-1.71,2.43-3,3.2-3.87.85-.95,1.61-1.75,2.36-2.81.54-.77.61-1.02,1.11-1.54.42-.43.72-.6.74-.95.03-.44-.38-.98-.82-1.06-.68-.12-1.15.93-2.73,3.05-1.13,1.51-2.36,2.95-3.6,4.4Z"/>
  <path class="cls-1" d="m9.96,13.17c.06.05-1.31,1.5-3.29,4.34-.6.87-3.5,5.08-4.24,4.71-.11-.06-.32-.29-.47-.22-.1.05-.14.22-.11.25.25.2,7.95-9.21,8.11-9.08Z"/>
  <path class="cls-1" d="m19.83,2.02c.39-.86.47-1.1.45-1.11-.03-.02-.21.47-.64.65-.08.03-.16.05-.27.12-.2.12-.3.28-.35.36-.37.55-.69.98-.84,1.17-.19.24-.29.37-.4.43-.26.17-.47.13-.72.36-.09.08-.15.17-.2.24-.15.22-.21.41-.23.47-.16.43-.58.62-1.1,1.26-.01.02-.19.27-.53.77-.6.87-.77,1.12-1.1,1.32-.27.17-.53.24-.71.27"/>
</svg>